G75*
%MOIN*%
%OFA0B0*%
%FSLAX25Y25*%
%IPPOS*%
%LPD*%
%AMOC8*
5,1,8,0,0,1.08239X$1,22.5*
%
%ADD10C,0.04737*%
%ADD11OC8,0.08200*%
%ADD12C,0.08200*%
%ADD13C,0.06000*%
%ADD14R,0.04800X0.04800*%
%ADD15R,0.07800X0.07800*%
%ADD16C,0.04350*%
%ADD17R,0.05524X0.03950*%
%ADD18R,0.03950X0.05524*%
%ADD19R,0.05600X0.09600*%
%ADD20R,0.14973X0.09461*%
%ADD21R,0.03162X0.05524*%
%ADD22C,0.01975*%
%ADD23C,0.03600*%
%ADD24C,0.07400*%
D10*
X0094353Y0277500D03*
X0104353Y0277500D03*
X0114353Y0277500D03*
X0124353Y0277500D03*
X0134353Y0277500D03*
X0144353Y0277500D03*
X0154353Y0277500D03*
D11*
X0019353Y0007500D03*
X0029353Y0007500D03*
X0029353Y0017500D03*
X0029353Y0027500D03*
X0029353Y0037500D03*
X0029353Y0047500D03*
X0029353Y0057500D03*
X0029353Y0067500D03*
X0029353Y0077500D03*
X0029353Y0087500D03*
X0029353Y0097500D03*
X0029353Y0107500D03*
X0029353Y0117500D03*
X0029353Y0127500D03*
X0029353Y0137500D03*
X0029353Y0147500D03*
X0029353Y0157500D03*
X0029353Y0167500D03*
X0029353Y0177500D03*
X0029353Y0187500D03*
X0029353Y0197500D03*
X0029353Y0207500D03*
X0029353Y0217500D03*
X0029353Y0227500D03*
X0029353Y0237500D03*
X0029353Y0247500D03*
X0019353Y0247500D03*
X0019353Y0237500D03*
X0019353Y0227500D03*
X0019353Y0217500D03*
X0019353Y0207500D03*
X0019353Y0197500D03*
X0019353Y0187500D03*
X0019353Y0177500D03*
X0019353Y0167500D03*
X0019353Y0157500D03*
X0019353Y0147500D03*
X0019353Y0137500D03*
X0019353Y0127500D03*
X0019353Y0117500D03*
X0019353Y0107500D03*
X0019353Y0097500D03*
X0019353Y0087500D03*
X0019353Y0077500D03*
X0019353Y0067500D03*
X0019353Y0057500D03*
X0019353Y0047500D03*
X0019353Y0037500D03*
X0019353Y0027500D03*
X0019353Y0017500D03*
X0219353Y0017500D03*
X0229353Y0017500D03*
X0229353Y0007500D03*
X0219353Y0007500D03*
X0219353Y0027500D03*
X0219353Y0037500D03*
X0229353Y0037500D03*
X0229353Y0027500D03*
X0229353Y0047500D03*
X0229353Y0057500D03*
X0229353Y0067500D03*
X0229353Y0077500D03*
X0229353Y0087500D03*
X0229353Y0097500D03*
X0229353Y0107500D03*
X0229353Y0117500D03*
X0229353Y0127500D03*
X0229353Y0137500D03*
X0229353Y0147500D03*
X0229353Y0157500D03*
X0229353Y0167500D03*
X0229353Y0177500D03*
X0229353Y0187500D03*
X0229353Y0197500D03*
X0229353Y0207500D03*
X0229353Y0217500D03*
X0229353Y0227500D03*
X0229353Y0237500D03*
X0229353Y0247500D03*
X0219353Y0247500D03*
X0219353Y0237500D03*
X0219353Y0227500D03*
X0219353Y0217500D03*
X0219353Y0207500D03*
X0219353Y0197500D03*
X0219353Y0187500D03*
X0219353Y0177500D03*
X0219353Y0167500D03*
X0219353Y0157500D03*
X0219353Y0147500D03*
X0219353Y0137500D03*
X0219353Y0127500D03*
X0219353Y0117500D03*
X0219353Y0107500D03*
X0219353Y0097500D03*
X0219353Y0087500D03*
X0219353Y0077500D03*
X0219353Y0067500D03*
X0219353Y0057500D03*
X0219353Y0047500D03*
D12*
X0199353Y0017500D03*
X0199353Y0007500D03*
X0189353Y0007500D03*
X0189353Y0017500D03*
X0179353Y0017500D03*
X0179353Y0007500D03*
X0169353Y0007500D03*
X0169353Y0017500D03*
X0159353Y0017500D03*
X0149353Y0017500D03*
X0149353Y0007500D03*
X0159353Y0007500D03*
X0139353Y0007500D03*
X0139353Y0017500D03*
X0129353Y0017500D03*
X0129353Y0007500D03*
X0119353Y0007500D03*
X0119353Y0017500D03*
X0109353Y0017500D03*
X0109353Y0007500D03*
X0264603Y0010750D03*
X0264603Y0020750D03*
X0264603Y0030750D03*
X0264603Y0040750D03*
X0264603Y0050750D03*
X0264603Y0060750D03*
X0264603Y0070750D03*
X0264603Y0080750D03*
X0264603Y0090750D03*
X0264603Y0100750D03*
X0264603Y0110750D03*
X0264603Y0120750D03*
X0264603Y0130750D03*
X0264603Y0140750D03*
X0264603Y0150750D03*
X0264603Y0160750D03*
X0264603Y0170750D03*
X0264603Y0180750D03*
X0264603Y0190750D03*
X0264603Y0200750D03*
X0264603Y0210750D03*
X0279603Y0195750D03*
X0289603Y0195750D03*
X0299603Y0195750D03*
X0309603Y0195750D03*
X0324603Y0190750D03*
X0324603Y0180750D03*
X0324603Y0170750D03*
X0324603Y0160750D03*
X0324603Y0150750D03*
X0324603Y0140750D03*
X0324603Y0130750D03*
X0324603Y0120750D03*
X0324603Y0110750D03*
X0324603Y0100750D03*
X0324603Y0090750D03*
X0324603Y0080750D03*
X0324603Y0070750D03*
X0324603Y0060750D03*
X0324603Y0050750D03*
X0324603Y0040750D03*
X0324603Y0030750D03*
X0324603Y0020750D03*
X0324603Y0010750D03*
X0300353Y0160750D03*
X0290353Y0160750D03*
X0324603Y0200750D03*
X0324603Y0210750D03*
X0159353Y0272500D03*
X0159353Y0282500D03*
X0149353Y0282500D03*
X0149353Y0272500D03*
X0139353Y0272500D03*
X0139353Y0282500D03*
X0129353Y0282500D03*
X0129353Y0272500D03*
X0119353Y0272500D03*
X0119353Y0282500D03*
X0109353Y0282500D03*
X0109353Y0272500D03*
X0099353Y0272500D03*
X0099353Y0282500D03*
X0089353Y0282500D03*
X0089353Y0272500D03*
X0066353Y0221500D03*
X0056353Y0221500D03*
D13*
X0125353Y0207500D03*
X0144353Y0207500D03*
X0168853Y0193500D03*
X0178853Y0193500D03*
X0171853Y0311500D03*
X0171853Y0330500D03*
X0309353Y0153500D03*
X0309353Y0143500D03*
X0303853Y0129000D03*
X0284853Y0129000D03*
D14*
X0285103Y0019500D03*
X0304103Y0019500D03*
X0078853Y0019750D03*
X0059853Y0019750D03*
X0020103Y0313000D03*
X0020103Y0332000D03*
D15*
X0009353Y0336750D03*
X0009353Y0308250D03*
X0055103Y0009000D03*
X0083603Y0009000D03*
X0280353Y0008750D03*
X0308853Y0008750D03*
D16*
X0202754Y0300775D02*
X0202754Y0302225D01*
X0214952Y0302225D01*
X0214952Y0300775D01*
X0202754Y0300775D01*
X0202754Y0310775D02*
X0202754Y0312225D01*
X0214952Y0312225D01*
X0214952Y0310775D01*
X0202754Y0310775D01*
X0202754Y0320775D02*
X0202754Y0322225D01*
X0214952Y0322225D01*
X0214952Y0320775D01*
X0202754Y0320775D01*
X0202754Y0330775D02*
X0202754Y0332225D01*
X0214952Y0332225D01*
X0214952Y0330775D01*
X0202754Y0330775D01*
X0202754Y0340775D02*
X0202754Y0342225D01*
X0214952Y0342225D01*
X0214952Y0340775D01*
X0202754Y0340775D01*
X0202754Y0350775D02*
X0202754Y0352225D01*
X0214952Y0352225D01*
X0214952Y0350775D01*
X0202754Y0350775D01*
D17*
X0279603Y0184293D03*
X0279603Y0177207D03*
X0279603Y0169293D03*
X0279603Y0162207D03*
X0289603Y0152043D03*
X0289603Y0144957D03*
X0299603Y0144957D03*
X0299603Y0152043D03*
X0311103Y0136043D03*
X0311103Y0128957D03*
X0288853Y0116293D03*
X0288853Y0109207D03*
X0301853Y0098793D03*
X0301853Y0091707D03*
X0307853Y0083293D03*
X0307853Y0076207D03*
X0299853Y0070793D03*
X0299853Y0063707D03*
X0286103Y0076207D03*
X0286103Y0083293D03*
X0275853Y0093957D03*
X0275853Y0101043D03*
X0278353Y0128957D03*
X0278353Y0136043D03*
D18*
X0299309Y0175750D03*
X0306396Y0175750D03*
X0308646Y0055000D03*
X0301559Y0055000D03*
X0298146Y0018500D03*
X0291059Y0018500D03*
D19*
X0293953Y0027550D03*
X0284853Y0027550D03*
X0275753Y0027550D03*
D20*
X0284853Y0051951D03*
D21*
X0305113Y0044000D03*
X0308853Y0044000D03*
X0312593Y0044000D03*
X0312593Y0034945D03*
X0308853Y0034945D03*
X0305113Y0034945D03*
D22*
X0290802Y0058772D02*
X0290802Y0060748D01*
X0293564Y0060748D01*
X0293564Y0058772D01*
X0290802Y0058772D01*
X0290802Y0060746D02*
X0293564Y0060746D01*
X0290802Y0066252D02*
X0290802Y0068228D01*
X0293564Y0068228D01*
X0293564Y0066252D01*
X0290802Y0066252D01*
X0290802Y0068226D02*
X0293564Y0068226D01*
X0282141Y0064488D02*
X0282141Y0062512D01*
X0282141Y0064488D02*
X0284903Y0064488D01*
X0284903Y0062512D01*
X0282141Y0062512D01*
X0282141Y0064486D02*
X0284903Y0064486D01*
D23*
X0288353Y0063500D03*
X0287103Y0071750D03*
X0294603Y0075500D03*
X0291853Y0082000D03*
X0297603Y0082000D03*
X0307353Y0091750D03*
X0309853Y0095750D03*
X0315853Y0094000D03*
X0315853Y0097750D03*
X0316603Y0087500D03*
X0316603Y0083500D03*
X0316603Y0079500D03*
X0305603Y0064000D03*
X0308603Y0049750D03*
X0308853Y0027500D03*
X0312603Y0024250D03*
X0303603Y0027750D03*
X0295103Y0013000D03*
X0278353Y0036000D03*
X0284853Y0044500D03*
X0286353Y0093000D03*
X0281853Y0094000D03*
X0282603Y0099500D03*
X0286853Y0103750D03*
X0293853Y0106000D03*
X0293853Y0111750D03*
X0299103Y0106500D03*
X0296603Y0120500D03*
X0303853Y0122000D03*
X0289603Y0138750D03*
X0285603Y0134500D03*
X0282853Y0124250D03*
X0272353Y0138250D03*
X0282103Y0157250D03*
X0272353Y0173750D03*
X0285603Y0184250D03*
X0307103Y0168500D03*
X0312853Y0148500D03*
X0211353Y0155000D03*
X0210853Y0169000D03*
X0189353Y0162500D03*
X0182353Y0162500D03*
X0182353Y0167000D03*
X0188353Y0155000D03*
X0202853Y0142500D03*
X0202853Y0132500D03*
X0157353Y0110000D03*
X0143853Y0098500D03*
X0125853Y0091500D03*
X0125853Y0087000D03*
X0125853Y0082500D03*
X0118353Y0071000D03*
X0113353Y0071000D03*
X0107853Y0071000D03*
X0102853Y0071000D03*
X0102853Y0066500D03*
X0102353Y0060500D03*
X0101353Y0043500D03*
X0091353Y0042000D03*
X0083853Y0057500D03*
X0078853Y0062500D03*
X0083853Y0069500D03*
X0064353Y0051000D03*
X0071853Y0038000D03*
X0131353Y0061000D03*
X0131353Y0067500D03*
X0161353Y0084500D03*
X0170853Y0076500D03*
X0183353Y0037000D03*
X0188853Y0031000D03*
X0197353Y0026000D03*
X0126353Y0113000D03*
X0115353Y0119000D03*
X0111853Y0114500D03*
X0106853Y0112000D03*
X0101853Y0107000D03*
X0104853Y0120500D03*
X0104853Y0124500D03*
X0104353Y0142000D03*
X0104353Y0146500D03*
X0113353Y0153500D03*
X0118353Y0159000D03*
X0114853Y0162000D03*
X0107853Y0163000D03*
X0106103Y0158000D03*
X0092853Y0165500D03*
X0098853Y0180500D03*
X0104353Y0180500D03*
X0104853Y0191500D03*
X0104853Y0195500D03*
X0104853Y0199500D03*
X0112853Y0199500D03*
X0112853Y0195500D03*
X0112853Y0191500D03*
X0130853Y0191000D03*
X0142853Y0186000D03*
X0139853Y0163000D03*
X0144353Y0162500D03*
X0142853Y0157000D03*
X0146853Y0156000D03*
X0146353Y0146000D03*
X0154884Y0139469D03*
X0154853Y0135500D03*
X0131353Y0137500D03*
X0131353Y0150000D03*
X0129353Y0160000D03*
X0125353Y0162500D03*
X0122853Y0159000D03*
X0135853Y0160000D03*
X0093853Y0194000D03*
X0093853Y0198500D03*
X0076353Y0207500D03*
X0082353Y0232000D03*
X0086853Y0243000D03*
X0104353Y0223750D03*
X0108853Y0237500D03*
X0118853Y0237500D03*
X0118853Y0231000D03*
X0123853Y0243000D03*
X0128853Y0252000D03*
X0164353Y0214000D03*
X0193353Y0214000D03*
X0195353Y0237500D03*
X0209853Y0237500D03*
X0186353Y0251500D03*
X0208853Y0296500D03*
X0197353Y0301500D03*
X0197353Y0306500D03*
X0197353Y0311500D03*
X0197353Y0321500D03*
X0197353Y0331500D03*
X0197353Y0341500D03*
X0197353Y0351500D03*
X0180853Y0351500D03*
X0167353Y0361500D03*
X0164353Y0343000D03*
X0162853Y0323000D03*
X0180853Y0311500D03*
X0180853Y0301500D03*
X0165853Y0300500D03*
X0134853Y0310000D03*
X0123853Y0319750D03*
X0118853Y0324125D03*
X0128853Y0329500D03*
X0127353Y0335500D03*
X0127853Y0345000D03*
X0136603Y0347500D03*
X0137353Y0337000D03*
X0114353Y0313000D03*
X0110103Y0318500D03*
X0103853Y0310000D03*
X0105728Y0302250D03*
X0088853Y0317000D03*
X0088853Y0321000D03*
X0077853Y0300500D03*
X0059353Y0318500D03*
X0053478Y0317000D03*
X0039353Y0335000D03*
X0047353Y0337000D03*
X0061353Y0339500D03*
X0045853Y0300500D03*
X0014353Y0257000D03*
X0059853Y0172500D03*
X0076353Y0167500D03*
X0060853Y0111000D03*
X0219353Y0308000D03*
X0218853Y0316500D03*
X0219353Y0341500D03*
X0230353Y0341500D03*
X0226353Y0351500D03*
X0110103Y0335000D03*
D24*
X0208853Y0227250D03*
X0208853Y0217500D03*
X0274603Y0210750D03*
X0313603Y0210750D03*
M02*
