G75*
%MOIN*%
%OFA0B0*%
%FSLAX25Y25*%
%IPPOS*%
%LPD*%
%AMOC8*
5,1,8,0,0,1.08239X$1,22.5*
%
%ADD10C,0.00500*%
%ADD11C,0.01200*%
%ADD12C,0.00800*%
%ADD13C,0.00200*%
%ADD14C,0.00600*%
D10*
X0271355Y0049950D02*
X0271805Y0049500D01*
X0272706Y0049500D01*
X0273156Y0049950D01*
X0274301Y0049950D02*
X0274301Y0052202D01*
X0273156Y0051752D02*
X0272706Y0052202D01*
X0271805Y0052202D01*
X0271355Y0051752D01*
X0271355Y0051302D01*
X0271805Y0050851D01*
X0271355Y0050401D01*
X0271355Y0049950D01*
X0271805Y0050851D02*
X0272255Y0050851D01*
X0274301Y0049950D02*
X0274752Y0049500D01*
X0275652Y0049500D01*
X0276103Y0049950D01*
X0276103Y0052202D01*
X0285097Y0057594D02*
X0290609Y0057594D01*
X0290609Y0069406D01*
X0285097Y0069406D01*
X0285097Y0057594D01*
X0279839Y0063044D02*
X0279839Y0064846D01*
X0279839Y0063945D02*
X0277137Y0063945D01*
X0277137Y0065990D02*
X0278939Y0067792D01*
X0279389Y0067792D01*
X0279839Y0067342D01*
X0279839Y0066441D01*
X0279389Y0065990D01*
X0277137Y0065990D02*
X0277137Y0067792D01*
X0279853Y0074080D02*
X0279403Y0074531D01*
X0279403Y0075431D01*
X0279853Y0075882D01*
X0279853Y0077027D02*
X0279403Y0077477D01*
X0279403Y0078378D01*
X0279853Y0078828D01*
X0280303Y0078828D01*
X0280754Y0078378D01*
X0280754Y0077927D01*
X0280754Y0078378D02*
X0281204Y0078828D01*
X0281655Y0078828D01*
X0282105Y0078378D01*
X0282105Y0077477D01*
X0281655Y0077027D01*
X0281655Y0075882D02*
X0282105Y0075431D01*
X0282105Y0074531D01*
X0281655Y0074080D01*
X0279853Y0074080D01*
X0280754Y0079973D02*
X0280754Y0081775D01*
X0282105Y0081324D02*
X0280754Y0079973D01*
X0279403Y0081324D02*
X0282105Y0081324D01*
X0295103Y0091031D02*
X0295103Y0091931D01*
X0295553Y0092382D01*
X0295553Y0093527D02*
X0295103Y0093977D01*
X0295103Y0094878D01*
X0295553Y0095328D01*
X0296003Y0095328D01*
X0296454Y0094878D01*
X0296454Y0094428D01*
X0296454Y0094878D02*
X0296904Y0095328D01*
X0297355Y0095328D01*
X0297805Y0094878D01*
X0297805Y0093977D01*
X0297355Y0093527D01*
X0297355Y0092382D02*
X0297805Y0091931D01*
X0297805Y0091031D01*
X0297355Y0090580D01*
X0295553Y0090580D01*
X0295103Y0091031D01*
X0295553Y0096473D02*
X0295103Y0096924D01*
X0295103Y0097824D01*
X0295553Y0098275D01*
X0297355Y0098275D01*
X0295553Y0096473D01*
X0297355Y0096473D01*
X0297805Y0096924D01*
X0297805Y0097824D01*
X0297355Y0098275D01*
X0284355Y0111330D02*
X0282553Y0111330D01*
X0282103Y0111781D01*
X0282103Y0112681D01*
X0282553Y0113132D01*
X0282103Y0114277D02*
X0283904Y0116078D01*
X0284355Y0116078D01*
X0284805Y0115628D01*
X0284805Y0114727D01*
X0284355Y0114277D01*
X0284355Y0113132D02*
X0284805Y0112681D01*
X0284805Y0111781D01*
X0284355Y0111330D01*
X0282103Y0114277D02*
X0282103Y0116078D01*
X0282553Y0117223D02*
X0282103Y0117674D01*
X0282103Y0118574D01*
X0282553Y0119025D01*
X0284355Y0119025D01*
X0284805Y0118574D01*
X0284805Y0117674D01*
X0284355Y0117223D01*
X0283904Y0117223D01*
X0283454Y0117674D01*
X0283454Y0119025D01*
X0276305Y0110874D02*
X0273603Y0110874D01*
X0273603Y0109973D02*
X0273603Y0111775D01*
X0275404Y0109973D02*
X0276305Y0110874D01*
X0275855Y0108828D02*
X0275404Y0108828D01*
X0274954Y0108378D01*
X0274503Y0108828D01*
X0274053Y0108828D01*
X0273603Y0108378D01*
X0273603Y0107477D01*
X0274053Y0107027D01*
X0274053Y0105882D02*
X0273603Y0105431D01*
X0273603Y0104531D01*
X0274053Y0104080D01*
X0275855Y0104080D01*
X0276305Y0104531D01*
X0276305Y0105431D01*
X0275855Y0105882D01*
X0275855Y0107027D02*
X0276305Y0107477D01*
X0276305Y0108378D01*
X0275855Y0108828D01*
X0274954Y0108378D02*
X0274954Y0107928D01*
X0273405Y0125580D02*
X0271603Y0125580D01*
X0271153Y0126031D01*
X0271153Y0126931D01*
X0271603Y0127382D01*
X0271153Y0128527D02*
X0272954Y0130328D01*
X0273405Y0130328D01*
X0273855Y0129878D01*
X0273855Y0128977D01*
X0273405Y0128527D01*
X0273405Y0127382D02*
X0273855Y0126931D01*
X0273855Y0126031D01*
X0273405Y0125580D01*
X0271153Y0128527D02*
X0271153Y0130328D01*
X0271603Y0131473D02*
X0271153Y0131924D01*
X0271153Y0132824D01*
X0271603Y0133275D01*
X0272053Y0133275D01*
X0272504Y0132824D01*
X0272504Y0131924D01*
X0272954Y0131473D01*
X0273405Y0131473D01*
X0273855Y0131924D01*
X0273855Y0132824D01*
X0273405Y0133275D01*
X0272954Y0133275D01*
X0272504Y0132824D01*
X0272504Y0131924D02*
X0272053Y0131473D01*
X0271603Y0131473D01*
X0283353Y0144330D02*
X0282903Y0144781D01*
X0282903Y0145681D01*
X0283353Y0146132D01*
X0283353Y0147277D02*
X0282903Y0147727D01*
X0282903Y0148628D01*
X0283353Y0149078D01*
X0283803Y0149078D01*
X0284254Y0148628D01*
X0284254Y0148177D01*
X0284254Y0148628D02*
X0284704Y0149078D01*
X0285155Y0149078D01*
X0285605Y0148628D01*
X0285605Y0147727D01*
X0285155Y0147277D01*
X0285155Y0146132D02*
X0285605Y0145681D01*
X0285605Y0144781D01*
X0285155Y0144330D01*
X0283353Y0144330D01*
X0283353Y0150223D02*
X0282903Y0150674D01*
X0282903Y0151574D01*
X0283353Y0152025D01*
X0283803Y0152025D01*
X0284254Y0151574D01*
X0284254Y0150223D01*
X0283353Y0150223D01*
X0284254Y0150223D02*
X0285155Y0151124D01*
X0285605Y0152025D01*
X0284753Y0165580D02*
X0284753Y0166931D01*
X0285204Y0167382D01*
X0286105Y0167382D01*
X0286555Y0166931D01*
X0286555Y0165580D01*
X0283853Y0165580D01*
X0284753Y0166481D02*
X0283853Y0167382D01*
X0284303Y0168527D02*
X0283853Y0168977D01*
X0283853Y0169878D01*
X0284303Y0170328D01*
X0284753Y0170328D01*
X0285204Y0169878D01*
X0285204Y0169428D01*
X0285204Y0169878D02*
X0285654Y0170328D01*
X0286105Y0170328D01*
X0286555Y0169878D01*
X0286555Y0168977D01*
X0286105Y0168527D01*
X0286105Y0171473D02*
X0286555Y0171924D01*
X0286555Y0172824D01*
X0286105Y0173275D01*
X0285654Y0173275D01*
X0285204Y0172824D01*
X0284753Y0173275D01*
X0284303Y0173275D01*
X0283853Y0172824D01*
X0283853Y0171924D01*
X0284303Y0171473D01*
X0285204Y0172374D02*
X0285204Y0172824D01*
X0275355Y0177281D02*
X0274905Y0176830D01*
X0273103Y0176830D01*
X0272653Y0177281D01*
X0272653Y0178181D01*
X0273103Y0178632D01*
X0273103Y0179777D02*
X0272653Y0180227D01*
X0272653Y0181128D01*
X0273103Y0181578D01*
X0273553Y0181578D01*
X0274004Y0181128D01*
X0274004Y0180677D01*
X0274004Y0181128D02*
X0274454Y0181578D01*
X0274905Y0181578D01*
X0275355Y0181128D01*
X0275355Y0180227D01*
X0274905Y0179777D01*
X0274905Y0178632D02*
X0275355Y0178181D01*
X0275355Y0177281D01*
X0274905Y0182723D02*
X0275355Y0183174D01*
X0275355Y0184074D01*
X0274905Y0184525D01*
X0274454Y0184525D01*
X0274004Y0184074D01*
X0273553Y0184525D01*
X0273103Y0184525D01*
X0272653Y0184074D01*
X0272653Y0183174D01*
X0273103Y0182723D01*
X0274004Y0183624D02*
X0274004Y0184074D01*
X0279053Y0203500D02*
X0278603Y0203950D01*
X0278603Y0204851D01*
X0279053Y0205302D01*
X0279503Y0205302D01*
X0279954Y0204851D01*
X0279954Y0204401D01*
X0279954Y0204851D02*
X0280404Y0205302D01*
X0280855Y0205302D01*
X0281305Y0204851D01*
X0281305Y0203950D01*
X0280855Y0203500D01*
X0281305Y0206447D02*
X0279503Y0206447D01*
X0278603Y0207347D01*
X0279503Y0208248D01*
X0281305Y0208248D01*
X0288603Y0208861D02*
X0288603Y0209762D01*
X0289053Y0210212D01*
X0290855Y0210212D01*
X0291305Y0209762D01*
X0291305Y0208861D01*
X0290855Y0208411D01*
X0289053Y0208411D01*
X0288603Y0208861D01*
X0288603Y0207347D02*
X0288603Y0206447D01*
X0288603Y0206897D02*
X0291305Y0206897D01*
X0291305Y0206447D02*
X0291305Y0207347D01*
X0290855Y0205302D02*
X0291305Y0204851D01*
X0291305Y0203500D01*
X0288603Y0203500D01*
X0288603Y0204851D01*
X0289053Y0205302D01*
X0290855Y0205302D01*
X0297853Y0204851D02*
X0298303Y0205302D01*
X0297853Y0204851D02*
X0297853Y0203950D01*
X0298303Y0203500D01*
X0300105Y0203500D01*
X0300555Y0203950D01*
X0300555Y0204851D01*
X0300105Y0205302D01*
X0300555Y0206447D02*
X0297853Y0206447D01*
X0297853Y0208248D01*
X0297853Y0209393D02*
X0300555Y0209393D01*
X0299204Y0209843D02*
X0297853Y0211195D01*
X0298753Y0209393D02*
X0300555Y0211195D01*
X0308353Y0205101D02*
X0308803Y0205552D01*
X0309704Y0205552D01*
X0309704Y0204651D01*
X0310605Y0205552D02*
X0311055Y0205101D01*
X0311055Y0204200D01*
X0310605Y0203750D01*
X0308803Y0203750D01*
X0308353Y0204200D01*
X0308353Y0205101D01*
X0305072Y0141502D02*
X0305523Y0141052D01*
X0305523Y0139250D01*
X0305072Y0138800D01*
X0304171Y0138800D01*
X0303721Y0139250D01*
X0302576Y0139250D02*
X0302126Y0138800D01*
X0301225Y0138800D01*
X0300774Y0139250D01*
X0300774Y0139701D01*
X0301225Y0140151D01*
X0301675Y0140151D01*
X0301225Y0140151D02*
X0300774Y0140602D01*
X0300774Y0141052D01*
X0301225Y0141502D01*
X0302126Y0141502D01*
X0302576Y0141052D01*
X0303721Y0141052D02*
X0304171Y0141502D01*
X0305072Y0141502D01*
X0299629Y0141502D02*
X0299629Y0140151D01*
X0298729Y0140602D01*
X0298278Y0140602D01*
X0297828Y0140151D01*
X0297828Y0139250D01*
X0298278Y0138800D01*
X0299179Y0138800D01*
X0299629Y0139250D01*
X0299629Y0141502D02*
X0297828Y0141502D01*
X0307578Y0125002D02*
X0307578Y0124552D01*
X0309379Y0122750D01*
X0309379Y0122300D01*
X0310524Y0122300D02*
X0312326Y0122300D01*
X0310524Y0124102D01*
X0310524Y0124552D01*
X0310975Y0125002D01*
X0311876Y0125002D01*
X0312326Y0124552D01*
X0313471Y0124552D02*
X0313921Y0125002D01*
X0314822Y0125002D01*
X0315273Y0124552D01*
X0315273Y0122750D01*
X0314822Y0122300D01*
X0313921Y0122300D01*
X0313471Y0122750D01*
X0309379Y0125002D02*
X0307578Y0125002D01*
X0311853Y0080025D02*
X0311853Y0078223D01*
X0311853Y0079124D02*
X0314555Y0079124D01*
X0313654Y0078223D01*
X0313204Y0077078D02*
X0313204Y0075277D01*
X0314555Y0076628D01*
X0311853Y0076628D01*
X0311853Y0074132D02*
X0312753Y0073231D01*
X0312753Y0073681D02*
X0312753Y0072330D01*
X0311853Y0072330D02*
X0314555Y0072330D01*
X0314555Y0073681D01*
X0314105Y0074132D01*
X0313204Y0074132D01*
X0312753Y0073681D01*
X0311773Y0069702D02*
X0310421Y0069702D01*
X0309971Y0069252D01*
X0309971Y0068351D01*
X0310421Y0067901D01*
X0311773Y0067901D01*
X0311773Y0067000D02*
X0311773Y0069702D01*
X0310872Y0067901D02*
X0309971Y0067000D01*
X0308826Y0067450D02*
X0308376Y0067000D01*
X0307475Y0067000D01*
X0307024Y0067450D01*
X0307024Y0067901D01*
X0307475Y0068351D01*
X0307925Y0068351D01*
X0307475Y0068351D02*
X0307024Y0068802D01*
X0307024Y0069252D01*
X0307475Y0069702D01*
X0308376Y0069702D01*
X0308826Y0069252D01*
X0305879Y0069252D02*
X0305879Y0068802D01*
X0305429Y0068351D01*
X0304078Y0068351D01*
X0304078Y0067450D02*
X0304078Y0069252D01*
X0304528Y0069702D01*
X0305429Y0069702D01*
X0305879Y0069252D01*
X0305879Y0067450D02*
X0305429Y0067000D01*
X0304528Y0067000D01*
X0304078Y0067450D01*
X0309028Y0061952D02*
X0308578Y0061502D01*
X0308578Y0061052D01*
X0309028Y0060601D01*
X0309929Y0060601D01*
X0310379Y0061052D01*
X0310379Y0061502D01*
X0309929Y0061952D01*
X0309028Y0061952D01*
X0309028Y0060601D02*
X0308578Y0060151D01*
X0308578Y0059700D01*
X0309028Y0059250D01*
X0309929Y0059250D01*
X0310379Y0059700D01*
X0310379Y0060151D01*
X0309929Y0060601D01*
X0311524Y0060151D02*
X0311975Y0060601D01*
X0312425Y0060601D01*
X0311975Y0060601D02*
X0311524Y0061052D01*
X0311524Y0061502D01*
X0311975Y0061952D01*
X0312876Y0061952D01*
X0313326Y0061502D01*
X0314471Y0061502D02*
X0314471Y0060601D01*
X0314921Y0060151D01*
X0316273Y0060151D01*
X0316273Y0059250D02*
X0316273Y0061952D01*
X0314921Y0061952D01*
X0314471Y0061502D01*
X0315372Y0060151D02*
X0314471Y0059250D01*
X0313326Y0059700D02*
X0312876Y0059250D01*
X0311975Y0059250D01*
X0311524Y0059700D01*
X0311524Y0060151D01*
X0315903Y0043855D02*
X0315903Y0042053D01*
X0317704Y0043855D01*
X0318155Y0043855D01*
X0318605Y0043405D01*
X0318605Y0042504D01*
X0318155Y0042053D01*
X0318155Y0040909D02*
X0318605Y0040458D01*
X0318605Y0039107D01*
X0315903Y0039107D01*
X0315903Y0040458D01*
X0316353Y0040909D01*
X0318155Y0040909D01*
X0318605Y0037962D02*
X0316803Y0037962D01*
X0315903Y0037061D01*
X0316803Y0036160D01*
X0318605Y0036160D01*
X0292773Y0014002D02*
X0292773Y0011300D01*
X0292773Y0012201D02*
X0291421Y0012201D01*
X0290971Y0012651D01*
X0290971Y0013552D01*
X0291421Y0014002D01*
X0292773Y0014002D01*
X0291872Y0012201D02*
X0290971Y0011300D01*
X0289826Y0011750D02*
X0289376Y0011300D01*
X0288475Y0011300D01*
X0288024Y0011750D01*
X0288024Y0012201D01*
X0288475Y0012651D01*
X0288925Y0012651D01*
X0288475Y0012651D02*
X0288024Y0013102D01*
X0288024Y0013552D01*
X0288475Y0014002D01*
X0289376Y0014002D01*
X0289826Y0013552D01*
X0286879Y0014002D02*
X0286879Y0012651D01*
X0285979Y0013102D01*
X0285528Y0013102D01*
X0285078Y0012651D01*
X0285078Y0011750D01*
X0285528Y0011300D01*
X0286429Y0011300D01*
X0286879Y0011750D01*
X0286879Y0014002D02*
X0285078Y0014002D01*
X0212702Y0305250D02*
X0212702Y0307952D01*
X0213603Y0307952D02*
X0211801Y0307952D01*
X0210656Y0307952D02*
X0209755Y0307052D01*
X0208855Y0307952D01*
X0208855Y0305250D01*
X0207710Y0305700D02*
X0207259Y0305250D01*
X0206359Y0305250D01*
X0205908Y0305700D01*
X0205908Y0306151D01*
X0206359Y0306601D01*
X0207259Y0306601D01*
X0207710Y0307052D01*
X0207710Y0307502D01*
X0207259Y0307952D01*
X0206359Y0307952D01*
X0205908Y0307502D01*
X0210656Y0307952D02*
X0210656Y0305250D01*
X0210206Y0315250D02*
X0209305Y0315250D01*
X0208855Y0315700D01*
X0207710Y0315250D02*
X0207710Y0317952D01*
X0208855Y0317502D02*
X0209305Y0317952D01*
X0210206Y0317952D01*
X0210656Y0317502D01*
X0210656Y0315700D01*
X0210206Y0315250D01*
X0212702Y0315250D02*
X0212702Y0317952D01*
X0213603Y0317952D02*
X0211801Y0317952D01*
X0207710Y0316151D02*
X0205908Y0317952D01*
X0207259Y0316601D02*
X0205908Y0315250D01*
X0206359Y0325250D02*
X0205908Y0325700D01*
X0205908Y0327502D01*
X0206359Y0327952D01*
X0207259Y0327952D01*
X0207710Y0327502D01*
X0207710Y0325700D01*
X0207259Y0325250D01*
X0206359Y0325250D01*
X0208855Y0325700D02*
X0208855Y0327502D01*
X0209305Y0327952D01*
X0210656Y0327952D01*
X0210656Y0325250D01*
X0209305Y0325250D01*
X0208855Y0325700D01*
X0211801Y0327952D02*
X0213603Y0327952D01*
X0212702Y0327952D02*
X0212702Y0325250D01*
X0213152Y0335250D02*
X0213603Y0335700D01*
X0213152Y0335250D02*
X0212252Y0335250D01*
X0211801Y0335700D01*
X0211801Y0336151D01*
X0212252Y0336601D01*
X0213152Y0336601D01*
X0213603Y0337052D01*
X0213603Y0337502D01*
X0213152Y0337952D01*
X0212252Y0337952D01*
X0211801Y0337502D01*
X0210656Y0337952D02*
X0210656Y0335250D01*
X0209755Y0336151D01*
X0208855Y0335250D01*
X0208855Y0337952D01*
X0207710Y0337502D02*
X0207710Y0335700D01*
X0207259Y0335250D01*
X0206359Y0335250D01*
X0205908Y0335700D01*
X0205908Y0337502D01*
X0206359Y0337952D01*
X0207259Y0337952D01*
X0207710Y0337502D01*
X0207259Y0345250D02*
X0206359Y0345250D01*
X0205908Y0345700D01*
X0205908Y0346151D01*
X0206359Y0346601D01*
X0207259Y0346601D01*
X0207710Y0347052D01*
X0207710Y0347502D01*
X0207259Y0347952D01*
X0206359Y0347952D01*
X0205908Y0347502D01*
X0204763Y0347952D02*
X0202962Y0347952D01*
X0203862Y0347952D02*
X0203862Y0345250D01*
X0207259Y0345250D02*
X0207710Y0345700D01*
X0208855Y0345250D02*
X0209755Y0346151D01*
X0209305Y0346151D02*
X0210656Y0346151D01*
X0210656Y0345250D02*
X0210656Y0347952D01*
X0209305Y0347952D01*
X0208855Y0347502D01*
X0208855Y0346601D01*
X0209305Y0346151D01*
X0211801Y0345250D02*
X0211801Y0347952D01*
X0213603Y0347952D02*
X0211801Y0345250D01*
X0213603Y0345250D02*
X0213603Y0347952D01*
X0211702Y0355750D02*
X0211702Y0358452D01*
X0212603Y0358452D02*
X0210801Y0358452D01*
X0209656Y0358452D02*
X0207855Y0355750D01*
X0209656Y0355750D02*
X0207855Y0358452D01*
D11*
X0217353Y0360500D02*
X0217353Y0355820D01*
X0217353Y0351883D02*
X0217353Y0347203D01*
X0217353Y0343266D02*
X0217353Y0338586D01*
X0217353Y0334649D02*
X0217353Y0329969D01*
X0217353Y0326031D02*
X0217353Y0321351D01*
X0217353Y0317414D02*
X0217353Y0312734D01*
X0217353Y0308797D02*
X0217353Y0304117D01*
X0217353Y0300180D02*
X0217353Y0295500D01*
X0216353Y0291000D02*
X0212366Y0291000D01*
X0208429Y0291000D02*
X0204443Y0291000D01*
X0200506Y0291000D02*
X0196519Y0291000D01*
X0192582Y0291000D02*
X0188595Y0291000D01*
X0184658Y0291000D02*
X0180672Y0291000D01*
X0176735Y0291000D02*
X0172748Y0291000D01*
X0168811Y0291000D02*
X0164825Y0291000D01*
X0160888Y0291000D02*
X0156901Y0291000D01*
X0152964Y0291000D02*
X0148977Y0291000D01*
X0145040Y0291000D02*
X0141054Y0291000D01*
X0137117Y0291000D02*
X0133130Y0291000D01*
X0129193Y0291000D02*
X0125207Y0291000D01*
X0121270Y0291000D02*
X0117283Y0291000D01*
X0113346Y0291000D02*
X0109359Y0291000D01*
X0105422Y0291000D02*
X0101436Y0291000D01*
X0097499Y0291000D02*
X0093512Y0291000D01*
X0089575Y0291000D02*
X0085589Y0291000D01*
X0081652Y0291000D02*
X0077665Y0291000D01*
X0073728Y0291000D02*
X0069741Y0291000D01*
X0065804Y0291000D02*
X0061818Y0291000D01*
X0057881Y0291000D02*
X0053894Y0291000D01*
X0049957Y0291000D02*
X0045971Y0291000D01*
X0042034Y0291000D02*
X0038047Y0291000D01*
X0034110Y0291000D02*
X0030124Y0291000D01*
X0026187Y0291000D02*
X0022200Y0291000D01*
X0018263Y0291000D02*
X0014276Y0291000D01*
X0010339Y0291000D02*
X0006353Y0291000D01*
D12*
X0106853Y0024000D02*
X0111853Y0024000D01*
X0271953Y0033250D02*
X0297753Y0033250D01*
X0297753Y0046250D01*
X0271953Y0046250D01*
X0271953Y0033250D01*
X0091853Y0266000D02*
X0086353Y0266000D01*
D13*
X0272703Y0103406D02*
X0272703Y0091594D01*
X0279002Y0091594D01*
X0279002Y0103406D01*
X0272703Y0103406D01*
X0285703Y0106844D02*
X0285703Y0118656D01*
X0292002Y0118656D01*
X0292002Y0106844D01*
X0285703Y0106844D01*
X0298703Y0101156D02*
X0298703Y0089344D01*
X0305002Y0089344D01*
X0305002Y0101156D01*
X0298703Y0101156D01*
X0304703Y0085656D02*
X0304703Y0073844D01*
X0311002Y0073844D01*
X0311002Y0085656D01*
X0304703Y0085656D01*
X0303002Y0073156D02*
X0296703Y0073156D01*
X0296703Y0061344D01*
X0303002Y0061344D01*
X0303002Y0073156D01*
X0289252Y0073844D02*
X0282953Y0073844D01*
X0282953Y0085656D01*
X0289252Y0085656D01*
X0289252Y0073844D01*
X0299197Y0058150D02*
X0299197Y0051850D01*
X0311008Y0051850D01*
X0311008Y0058150D01*
X0299197Y0058150D01*
X0300508Y0021650D02*
X0288697Y0021650D01*
X0288697Y0015350D01*
X0300508Y0015350D01*
X0300508Y0021650D01*
X0307953Y0126594D02*
X0314252Y0126594D01*
X0314252Y0138406D01*
X0307953Y0138406D01*
X0307953Y0126594D01*
X0302752Y0142594D02*
X0296453Y0142594D01*
X0296453Y0154406D01*
X0302752Y0154406D01*
X0302752Y0142594D01*
X0292752Y0142594D02*
X0292752Y0154406D01*
X0286453Y0154406D01*
X0286453Y0142594D01*
X0292752Y0142594D01*
X0281502Y0138406D02*
X0281502Y0126594D01*
X0275203Y0126594D01*
X0275203Y0138406D01*
X0281502Y0138406D01*
X0282752Y0159844D02*
X0276453Y0159844D01*
X0276453Y0171656D01*
X0282752Y0171656D01*
X0282752Y0159844D01*
X0282752Y0174844D02*
X0276453Y0174844D01*
X0276453Y0186656D01*
X0282752Y0186656D01*
X0282752Y0174844D01*
X0296947Y0172600D02*
X0308758Y0172600D01*
X0308758Y0178900D01*
X0296947Y0178900D01*
X0296947Y0172600D01*
D14*
X0295805Y0172931D02*
X0295371Y0173365D01*
X0294504Y0173365D01*
X0294070Y0172931D01*
X0294070Y0171630D01*
X0293203Y0171630D02*
X0295805Y0171630D01*
X0295805Y0172931D01*
X0295371Y0174577D02*
X0295805Y0175010D01*
X0295805Y0175878D01*
X0295371Y0176312D01*
X0294938Y0176312D01*
X0294504Y0175878D01*
X0294070Y0176312D01*
X0293636Y0176312D01*
X0293203Y0175878D01*
X0293203Y0175010D01*
X0293636Y0174577D01*
X0294504Y0175444D02*
X0294504Y0175878D01*
X0294504Y0177523D02*
X0294504Y0179258D01*
X0295805Y0178824D02*
X0294504Y0177523D01*
X0293203Y0178824D02*
X0295805Y0178824D01*
X0293203Y0173365D02*
X0294070Y0172498D01*
X0302947Y0042831D02*
X0302947Y0035955D01*
X0314758Y0035955D01*
X0314758Y0042831D01*
X0302947Y0042831D01*
X0314640Y0034378D02*
X0314642Y0034421D01*
X0314648Y0034463D01*
X0314658Y0034504D01*
X0314671Y0034545D01*
X0314688Y0034583D01*
X0314709Y0034621D01*
X0314733Y0034656D01*
X0314760Y0034689D01*
X0314790Y0034719D01*
X0314823Y0034746D01*
X0314858Y0034770D01*
X0314896Y0034791D01*
X0314934Y0034808D01*
X0314975Y0034821D01*
X0315016Y0034831D01*
X0315058Y0034837D01*
X0315101Y0034839D01*
X0315144Y0034837D01*
X0315186Y0034831D01*
X0315227Y0034821D01*
X0315268Y0034808D01*
X0315306Y0034791D01*
X0315344Y0034770D01*
X0315379Y0034746D01*
X0315412Y0034719D01*
X0315442Y0034689D01*
X0315469Y0034656D01*
X0315493Y0034621D01*
X0315514Y0034583D01*
X0315531Y0034545D01*
X0315544Y0034504D01*
X0315554Y0034463D01*
X0315560Y0034421D01*
X0315562Y0034378D01*
X0315560Y0034335D01*
X0315554Y0034293D01*
X0315544Y0034252D01*
X0315531Y0034211D01*
X0315514Y0034173D01*
X0315493Y0034135D01*
X0315469Y0034100D01*
X0315442Y0034067D01*
X0315412Y0034037D01*
X0315379Y0034010D01*
X0315344Y0033986D01*
X0315306Y0033965D01*
X0315268Y0033948D01*
X0315227Y0033935D01*
X0315186Y0033925D01*
X0315144Y0033919D01*
X0315101Y0033917D01*
X0315058Y0033919D01*
X0315016Y0033925D01*
X0314975Y0033935D01*
X0314934Y0033948D01*
X0314896Y0033965D01*
X0314858Y0033986D01*
X0314823Y0034010D01*
X0314790Y0034037D01*
X0314760Y0034067D01*
X0314733Y0034100D01*
X0314709Y0034135D01*
X0314688Y0034173D01*
X0314671Y0034211D01*
X0314658Y0034252D01*
X0314648Y0034293D01*
X0314642Y0034335D01*
X0314640Y0034378D01*
M02*
