G75*
%MOIN*%
%OFA0B0*%
%FSLAX25Y25*%
%IPPOS*%
%LPD*%
%AMOC8*
5,1,8,0,0,1.08239X$1,22.5*
%
%ADD10OC8,0.07400*%
%ADD11C,0.07400*%
%ADD12C,0.05200*%
%ADD13R,0.04000X0.04000*%
%ADD14R,0.07000X0.07000*%
%ADD15C,0.03750*%
%ADD16R,0.04724X0.03150*%
%ADD17R,0.03150X0.04724*%
%ADD18R,0.04800X0.08800*%
%ADD19R,0.14173X0.08661*%
%ADD20R,0.02362X0.04724*%
%ADD21C,0.01575*%
%ADD22C,0.02800*%
%ADD23C,0.01600*%
%ADD24C,0.03200*%
%ADD25C,0.02400*%
%ADD26C,0.01000*%
%ADD27C,0.01200*%
%ADD28C,0.06600*%
D10*
X0019353Y0007500D03*
X0029353Y0007500D03*
X0029353Y0017500D03*
X0029353Y0027500D03*
X0029353Y0037500D03*
X0029353Y0047500D03*
X0029353Y0057500D03*
X0029353Y0067500D03*
X0029353Y0077500D03*
X0029353Y0087500D03*
X0029353Y0097500D03*
X0029353Y0107500D03*
X0029353Y0117500D03*
X0029353Y0127500D03*
X0029353Y0137500D03*
X0029353Y0147500D03*
X0029353Y0157500D03*
X0029353Y0167500D03*
X0029353Y0177500D03*
X0029353Y0187500D03*
X0029353Y0197500D03*
X0029353Y0207500D03*
X0029353Y0217500D03*
X0029353Y0227500D03*
X0029353Y0237500D03*
X0029353Y0247500D03*
X0019353Y0247500D03*
X0019353Y0237500D03*
X0019353Y0227500D03*
X0019353Y0217500D03*
X0019353Y0207500D03*
X0019353Y0197500D03*
X0019353Y0187500D03*
X0019353Y0177500D03*
X0019353Y0167500D03*
X0019353Y0157500D03*
X0019353Y0147500D03*
X0019353Y0137500D03*
X0019353Y0127500D03*
X0019353Y0117500D03*
X0019353Y0107500D03*
X0019353Y0097500D03*
X0019353Y0087500D03*
X0019353Y0077500D03*
X0019353Y0067500D03*
X0019353Y0057500D03*
X0019353Y0047500D03*
X0019353Y0037500D03*
X0019353Y0027500D03*
X0019353Y0017500D03*
X0219353Y0017500D03*
X0229353Y0017500D03*
X0229353Y0007500D03*
X0219353Y0007500D03*
X0219353Y0027500D03*
X0219353Y0037500D03*
X0229353Y0037500D03*
X0229353Y0027500D03*
X0229353Y0047500D03*
X0229353Y0057500D03*
X0229353Y0067500D03*
X0229353Y0077500D03*
X0229353Y0087500D03*
X0229353Y0097500D03*
X0229353Y0107500D03*
X0229353Y0117500D03*
X0229353Y0127500D03*
X0229353Y0137500D03*
X0229353Y0147500D03*
X0229353Y0157500D03*
X0229353Y0167500D03*
X0229353Y0177500D03*
X0229353Y0187500D03*
X0229353Y0197500D03*
X0229353Y0207500D03*
X0229353Y0217500D03*
X0229353Y0227500D03*
X0229353Y0237500D03*
X0229353Y0247500D03*
X0219353Y0247500D03*
X0219353Y0237500D03*
X0219353Y0227500D03*
X0219353Y0217500D03*
X0219353Y0207500D03*
X0219353Y0197500D03*
X0219353Y0187500D03*
X0219353Y0177500D03*
X0219353Y0167500D03*
X0219353Y0157500D03*
X0219353Y0147500D03*
X0219353Y0137500D03*
X0219353Y0127500D03*
X0219353Y0117500D03*
X0219353Y0107500D03*
X0219353Y0097500D03*
X0219353Y0087500D03*
X0219353Y0077500D03*
X0219353Y0067500D03*
X0219353Y0057500D03*
X0219353Y0047500D03*
D11*
X0199353Y0017500D03*
X0199353Y0007500D03*
X0189353Y0007500D03*
X0189353Y0017500D03*
X0179353Y0017500D03*
X0179353Y0007500D03*
X0169353Y0007500D03*
X0169353Y0017500D03*
X0159353Y0017500D03*
X0149353Y0017500D03*
X0149353Y0007500D03*
X0159353Y0007500D03*
X0139353Y0007500D03*
X0139353Y0017500D03*
X0129353Y0017500D03*
X0129353Y0007500D03*
X0119353Y0007500D03*
X0119353Y0017500D03*
X0109353Y0017500D03*
X0109353Y0007500D03*
X0264603Y0010750D03*
X0264603Y0020750D03*
X0264603Y0030750D03*
X0264603Y0040750D03*
X0264603Y0050750D03*
X0264603Y0060750D03*
X0264603Y0070750D03*
X0264603Y0080750D03*
X0264603Y0090750D03*
X0264603Y0100750D03*
X0264603Y0110750D03*
X0264603Y0120750D03*
X0264603Y0130750D03*
X0264603Y0140750D03*
X0264603Y0150750D03*
X0264603Y0160750D03*
X0264603Y0170750D03*
X0264603Y0180750D03*
X0264603Y0190750D03*
X0264603Y0200750D03*
X0264603Y0210750D03*
X0279603Y0195750D03*
X0289603Y0195750D03*
X0299603Y0195750D03*
X0309603Y0195750D03*
X0324603Y0190750D03*
X0324603Y0180750D03*
X0324603Y0170750D03*
X0324603Y0160750D03*
X0324603Y0150750D03*
X0324603Y0140750D03*
X0324603Y0130750D03*
X0324603Y0120750D03*
X0324603Y0110750D03*
X0324603Y0100750D03*
X0324603Y0090750D03*
X0324603Y0080750D03*
X0324603Y0070750D03*
X0324603Y0060750D03*
X0324603Y0050750D03*
X0324603Y0040750D03*
X0324603Y0030750D03*
X0324603Y0020750D03*
X0324603Y0010750D03*
X0300353Y0160750D03*
X0290353Y0160750D03*
X0324603Y0200750D03*
X0324603Y0210750D03*
X0159353Y0272500D03*
X0159353Y0282500D03*
X0149353Y0282500D03*
X0149353Y0272500D03*
X0139353Y0272500D03*
X0139353Y0282500D03*
X0129353Y0282500D03*
X0129353Y0272500D03*
X0119353Y0272500D03*
X0119353Y0282500D03*
X0109353Y0282500D03*
X0109353Y0272500D03*
X0099353Y0272500D03*
X0099353Y0282500D03*
X0089353Y0282500D03*
X0089353Y0272500D03*
X0066353Y0221500D03*
X0056353Y0221500D03*
D12*
X0125353Y0207500D03*
X0144353Y0207500D03*
X0168853Y0193500D03*
X0178853Y0193500D03*
X0171853Y0311500D03*
X0171853Y0330500D03*
X0309353Y0153500D03*
X0309353Y0143500D03*
X0303853Y0129000D03*
X0284853Y0129000D03*
D13*
X0285103Y0019500D03*
X0304103Y0019500D03*
X0078853Y0019750D03*
X0059853Y0019750D03*
X0020103Y0313000D03*
X0020103Y0332000D03*
D14*
X0009353Y0336750D03*
X0009353Y0308250D03*
X0055103Y0009000D03*
X0083603Y0009000D03*
X0280353Y0008750D03*
X0308853Y0008750D03*
D15*
X0202854Y0300875D02*
X0202854Y0302125D01*
X0214852Y0302125D01*
X0214852Y0300875D01*
X0202854Y0300875D01*
X0202854Y0310875D02*
X0202854Y0312125D01*
X0214852Y0312125D01*
X0214852Y0310875D01*
X0202854Y0310875D01*
X0202854Y0320875D02*
X0202854Y0322125D01*
X0214852Y0322125D01*
X0214852Y0320875D01*
X0202854Y0320875D01*
X0202854Y0330875D02*
X0202854Y0332125D01*
X0214852Y0332125D01*
X0214852Y0330875D01*
X0202854Y0330875D01*
X0202854Y0340875D02*
X0202854Y0342125D01*
X0214852Y0342125D01*
X0214852Y0340875D01*
X0202854Y0340875D01*
X0202854Y0350875D02*
X0202854Y0352125D01*
X0214852Y0352125D01*
X0214852Y0350875D01*
X0202854Y0350875D01*
D16*
X0279603Y0184293D03*
X0279603Y0177207D03*
X0279603Y0169293D03*
X0279603Y0162207D03*
X0289603Y0152043D03*
X0289603Y0144957D03*
X0299603Y0144957D03*
X0299603Y0152043D03*
X0311103Y0136043D03*
X0311103Y0128957D03*
X0288853Y0116293D03*
X0288853Y0109207D03*
X0301853Y0098793D03*
X0301853Y0091707D03*
X0307853Y0083293D03*
X0307853Y0076207D03*
X0299853Y0070793D03*
X0299853Y0063707D03*
X0286103Y0076207D03*
X0286103Y0083293D03*
X0275853Y0093957D03*
X0275853Y0101043D03*
X0278353Y0128957D03*
X0278353Y0136043D03*
D17*
X0299309Y0175750D03*
X0306396Y0175750D03*
X0308646Y0055000D03*
X0301559Y0055000D03*
X0298146Y0018500D03*
X0291059Y0018500D03*
D18*
X0293953Y0027550D03*
X0284853Y0027550D03*
X0275753Y0027550D03*
D19*
X0284853Y0051951D03*
D20*
X0305113Y0044000D03*
X0308853Y0044000D03*
X0312593Y0044000D03*
X0312593Y0034945D03*
X0308853Y0034945D03*
X0305113Y0034945D03*
D21*
X0291002Y0058972D02*
X0291002Y0060548D01*
X0293364Y0060548D01*
X0293364Y0058972D01*
X0291002Y0058972D01*
X0291002Y0060546D02*
X0293364Y0060546D01*
X0291002Y0066452D02*
X0291002Y0068028D01*
X0293364Y0068028D01*
X0293364Y0066452D01*
X0291002Y0066452D01*
X0291002Y0068026D02*
X0293364Y0068026D01*
X0282341Y0064288D02*
X0282341Y0062712D01*
X0282341Y0064288D02*
X0284703Y0064288D01*
X0284703Y0062712D01*
X0282341Y0062712D01*
X0282341Y0064286D02*
X0284703Y0064286D01*
D22*
X0288353Y0063500D03*
X0287103Y0071750D03*
X0294603Y0075500D03*
X0291853Y0082000D03*
X0297603Y0082000D03*
X0307353Y0091750D03*
X0309853Y0095750D03*
X0315853Y0094000D03*
X0315853Y0097750D03*
X0316603Y0087500D03*
X0316603Y0083500D03*
X0316603Y0079500D03*
X0305603Y0064000D03*
X0308603Y0049750D03*
X0308853Y0027500D03*
X0312603Y0024250D03*
X0303603Y0027750D03*
X0295103Y0013000D03*
X0278353Y0036000D03*
X0284853Y0044500D03*
X0286353Y0093000D03*
X0281853Y0094000D03*
X0282603Y0099500D03*
X0286853Y0103750D03*
X0293853Y0106000D03*
X0293853Y0111750D03*
X0299103Y0106500D03*
X0296603Y0120500D03*
X0303853Y0122000D03*
X0289603Y0138750D03*
X0285603Y0134500D03*
X0282853Y0124250D03*
X0272353Y0138250D03*
X0282103Y0157250D03*
X0272353Y0173750D03*
X0285603Y0184250D03*
X0307103Y0168500D03*
X0312853Y0148500D03*
X0211353Y0155000D03*
X0210853Y0169000D03*
X0189353Y0162500D03*
X0182353Y0162500D03*
X0182353Y0167000D03*
X0188353Y0155000D03*
X0202853Y0142500D03*
X0202853Y0132500D03*
X0157353Y0110000D03*
X0143853Y0098500D03*
X0125853Y0091500D03*
X0125853Y0087000D03*
X0125853Y0082500D03*
X0118353Y0071000D03*
X0113353Y0071000D03*
X0107853Y0071000D03*
X0102853Y0071000D03*
X0102853Y0066500D03*
X0102353Y0060500D03*
X0101353Y0043500D03*
X0091353Y0042000D03*
X0083853Y0057500D03*
X0078853Y0062500D03*
X0083853Y0069500D03*
X0064353Y0051000D03*
X0071853Y0038000D03*
X0131353Y0061000D03*
X0131353Y0067500D03*
X0161353Y0084500D03*
X0170853Y0076500D03*
X0183353Y0037000D03*
X0188853Y0031000D03*
X0197353Y0026000D03*
X0126353Y0113000D03*
X0115353Y0119000D03*
X0111853Y0114500D03*
X0106853Y0112000D03*
X0101853Y0107000D03*
X0104853Y0120500D03*
X0104853Y0124500D03*
X0104353Y0142000D03*
X0104353Y0146500D03*
X0113353Y0153500D03*
X0118353Y0159000D03*
X0114853Y0162000D03*
X0107853Y0163000D03*
X0106103Y0158000D03*
X0092853Y0165500D03*
X0098853Y0180500D03*
X0104353Y0180500D03*
X0104853Y0191500D03*
X0104853Y0195500D03*
X0104853Y0199500D03*
X0112853Y0199500D03*
X0112853Y0195500D03*
X0112853Y0191500D03*
X0130853Y0191000D03*
X0142853Y0186000D03*
X0139853Y0163000D03*
X0144353Y0162500D03*
X0142853Y0157000D03*
X0146853Y0156000D03*
X0146353Y0146000D03*
X0154884Y0139469D03*
X0154853Y0135500D03*
X0131353Y0137500D03*
X0131353Y0150000D03*
X0129353Y0160000D03*
X0125353Y0162500D03*
X0122853Y0159000D03*
X0135853Y0160000D03*
X0093853Y0194000D03*
X0093853Y0198500D03*
X0076353Y0207500D03*
X0082353Y0232000D03*
X0086853Y0243000D03*
X0108853Y0237500D03*
X0118853Y0237500D03*
X0118853Y0231000D03*
X0123853Y0243000D03*
X0128853Y0252000D03*
X0164353Y0214000D03*
X0193353Y0214000D03*
X0195353Y0237500D03*
X0209853Y0237500D03*
X0186353Y0251500D03*
X0208853Y0296500D03*
X0197353Y0301500D03*
X0197353Y0306500D03*
X0197353Y0311500D03*
X0197353Y0321500D03*
X0197353Y0331500D03*
X0197353Y0341500D03*
X0197353Y0351500D03*
X0180853Y0351500D03*
X0167353Y0361500D03*
X0164353Y0343000D03*
X0162853Y0323000D03*
X0180853Y0311500D03*
X0180853Y0301500D03*
X0165853Y0300500D03*
X0134853Y0310000D03*
X0123853Y0319750D03*
X0123853Y0324125D03*
X0128853Y0329500D03*
X0127353Y0335500D03*
X0127853Y0345000D03*
X0136603Y0347500D03*
X0137353Y0337000D03*
X0114353Y0313000D03*
X0110103Y0318500D03*
X0103853Y0310000D03*
X0105728Y0302250D03*
X0088853Y0317000D03*
X0088853Y0321000D03*
X0077853Y0300500D03*
X0059353Y0318500D03*
X0053478Y0317000D03*
X0039353Y0335000D03*
X0047353Y0337000D03*
X0061353Y0339500D03*
X0045853Y0300500D03*
X0014353Y0257000D03*
X0059853Y0172500D03*
X0076353Y0167500D03*
X0060853Y0111000D03*
X0219353Y0308000D03*
X0218853Y0316500D03*
X0219353Y0341500D03*
X0230353Y0341500D03*
X0226353Y0351500D03*
X0110353Y0335500D03*
D23*
X0110103Y0318500D02*
X0110103Y0306625D01*
X0105728Y0302250D01*
X0103853Y0310000D02*
X0095853Y0310000D01*
X0088853Y0317000D01*
X0101353Y0293500D02*
X0099353Y0291500D01*
X0099353Y0282500D01*
X0109353Y0282500D02*
X0109353Y0289000D01*
X0111353Y0291000D01*
X0119353Y0272500D02*
X0134853Y0257000D01*
X0134853Y0237000D01*
X0149853Y0222000D01*
X0152353Y0235000D02*
X0144353Y0243000D01*
X0144353Y0257500D01*
X0129353Y0272500D01*
X0139353Y0272500D02*
X0154853Y0257000D01*
X0128853Y0252000D02*
X0128853Y0228500D01*
X0121853Y0221500D01*
X0116853Y0221500D01*
X0093853Y0198500D01*
X0104853Y0199500D02*
X0112853Y0199500D01*
X0112853Y0195500D02*
X0104853Y0195500D01*
X0104853Y0191500D02*
X0112853Y0191500D01*
X0150853Y0125500D02*
X0150853Y0045500D01*
X0174353Y0022000D01*
X0169353Y0017500D02*
X0160353Y0026500D01*
X0125353Y0062000D01*
X0122853Y0054000D02*
X0159353Y0017500D01*
X0144353Y0025500D02*
X0114853Y0055000D01*
X0103353Y0055000D01*
X0110853Y0048500D02*
X0069853Y0048500D01*
X0067353Y0051000D01*
X0064353Y0051000D01*
X0110853Y0048500D02*
X0134353Y0025000D01*
X0183353Y0037000D02*
X0202853Y0056500D01*
X0202853Y0132500D01*
X0202853Y0142500D02*
X0202853Y0215500D01*
X0186353Y0232000D01*
X0186353Y0251500D01*
X0221853Y0291000D02*
X0226353Y0295500D01*
X0226353Y0351500D01*
X0222853Y0350500D02*
X0221853Y0351500D01*
X0209353Y0351500D01*
X0222853Y0350500D02*
X0222853Y0296500D01*
X0219853Y0293500D01*
X0219353Y0308000D02*
X0215728Y0311625D01*
X0218853Y0316500D02*
X0218853Y0330000D01*
X0217228Y0331625D01*
X0208853Y0331500D01*
X0180853Y0311500D02*
X0178853Y0313500D01*
X0162853Y0329000D01*
X0137353Y0329000D01*
X0130853Y0335500D01*
X0127353Y0335500D01*
X0132853Y0343000D02*
X0164353Y0343000D01*
X0166353Y0337000D02*
X0137353Y0337000D01*
X0132853Y0343000D02*
X0130853Y0345000D01*
X0127853Y0345000D01*
X0136603Y0347500D02*
X0150603Y0361500D01*
X0167353Y0361500D01*
X0180853Y0351500D02*
X0166353Y0337000D01*
X0162853Y0323000D02*
X0125728Y0322875D01*
X0123853Y0324125D01*
X0123853Y0319750D02*
X0128103Y0315500D01*
X0153103Y0315500D01*
X0162603Y0306000D01*
X0176228Y0306000D01*
X0180853Y0301500D01*
X0272353Y0173750D02*
X0279603Y0173750D01*
X0279603Y0177207D01*
X0279603Y0173750D02*
X0279603Y0169293D01*
X0272353Y0173750D02*
X0272353Y0138250D01*
X0278353Y0136043D02*
X0278353Y0143043D01*
X0289603Y0152043D01*
X0299603Y0152043D01*
X0299603Y0155000D01*
X0303853Y0155000D01*
X0307103Y0158250D01*
X0307103Y0168500D01*
X0307103Y0174750D01*
X0306396Y0175750D01*
X0299309Y0175750D02*
X0299309Y0161793D01*
X0300353Y0160750D01*
X0307103Y0158250D02*
X0311603Y0158250D01*
X0314353Y0155500D01*
X0314353Y0150000D01*
X0312853Y0148500D01*
X0307896Y0144957D02*
X0309353Y0143500D01*
X0307896Y0144957D02*
X0299603Y0144957D01*
X0299646Y0134500D01*
X0285603Y0134500D01*
X0284853Y0129000D02*
X0283146Y0128957D01*
X0278353Y0128957D01*
X0282853Y0124250D02*
X0291603Y0124250D01*
X0296353Y0129000D01*
X0303853Y0129000D01*
X0306559Y0128957D01*
X0311103Y0128957D01*
X0303853Y0122000D02*
X0303853Y0103250D01*
X0297603Y0103250D01*
X0292603Y0098250D01*
X0292603Y0094000D01*
X0288103Y0089500D01*
X0282853Y0089500D01*
X0278103Y0084750D01*
X0278103Y0071750D01*
X0287103Y0071750D01*
X0294603Y0075000D02*
X0283522Y0063919D01*
X0299853Y0063707D02*
X0305309Y0063707D01*
X0308603Y0049750D02*
X0308853Y0049500D01*
X0308853Y0044000D01*
X0312593Y0044000D02*
X0312593Y0034945D01*
X0312593Y0029490D01*
X0312603Y0024250D01*
X0308853Y0027500D02*
X0308853Y0034945D01*
X0305113Y0034945D02*
X0305103Y0029250D01*
X0303603Y0027750D01*
X0304353Y0024000D02*
X0304103Y0023750D01*
X0294603Y0027550D02*
X0293953Y0027550D01*
X0291059Y0018500D02*
X0291059Y0017043D01*
X0295103Y0013000D01*
X0275753Y0027550D02*
X0274603Y0029450D01*
X0305113Y0034945D02*
X0305113Y0044000D01*
X0305896Y0091707D02*
X0301853Y0091707D01*
X0305896Y0091707D02*
X0307353Y0091750D01*
X0309853Y0095750D02*
X0306809Y0098793D01*
X0301853Y0098793D01*
X0290559Y0109250D02*
X0288853Y0109207D01*
X0281853Y0094000D02*
X0281396Y0093957D01*
X0289603Y0138750D02*
X0289603Y0144957D01*
X0293146Y0148500D01*
X0304353Y0148500D02*
X0309353Y0153500D01*
X0188353Y0155000D02*
X0184353Y0155000D01*
X0178353Y0161000D01*
X0178353Y0164500D01*
X0180853Y0167000D01*
X0182353Y0167000D01*
D24*
X0208853Y0217500D02*
X0219353Y0217500D01*
X0213603Y0222500D02*
X0208853Y0227250D01*
X0209853Y0237500D02*
X0195353Y0237500D01*
X0229353Y0227500D02*
X0234853Y0227500D01*
X0239353Y0223000D01*
X0239353Y0162500D01*
X0239353Y0151500D01*
X0235353Y0147500D01*
X0229353Y0147500D01*
X0264603Y0210750D02*
X0274603Y0210750D01*
X0313603Y0210750D02*
X0324603Y0210750D01*
X0118853Y0231000D02*
X0103853Y0231000D01*
X0091853Y0243000D01*
X0086853Y0243000D01*
X0108853Y0237500D02*
X0118853Y0237500D01*
X0076353Y0207500D02*
X0076353Y0167500D01*
X0077853Y0300500D02*
X0045853Y0300500D01*
D25*
X0056978Y0313500D02*
X0053478Y0317000D01*
X0048228Y0322250D01*
X0039353Y0331000D01*
X0039353Y0335000D01*
X0047353Y0337000D02*
X0059353Y0325000D01*
X0059353Y0318500D01*
X0056978Y0313500D02*
X0064853Y0313500D01*
X0072353Y0322000D01*
X0080353Y0322000D01*
X0087853Y0322000D01*
X0088853Y0321000D01*
X0080353Y0322000D02*
X0080353Y0309000D01*
X0092853Y0296500D01*
X0089353Y0293000D01*
X0089353Y0282500D01*
X0092853Y0296500D02*
X0185353Y0296500D01*
X0195353Y0306500D01*
X0197353Y0306500D01*
X0197353Y0311500D02*
X0208853Y0311500D01*
X0208853Y0301500D02*
X0197353Y0301500D01*
X0208853Y0301500D02*
X0208853Y0296500D01*
X0208853Y0321500D02*
X0197353Y0321500D01*
X0197353Y0331500D02*
X0208853Y0331500D01*
X0208853Y0341500D02*
X0197353Y0341500D01*
X0197353Y0351500D02*
X0208853Y0351500D01*
X0208853Y0341500D02*
X0219353Y0341500D01*
X0165853Y0300500D02*
X0155353Y0300500D01*
X0145853Y0310000D01*
X0134853Y0310000D01*
X0117353Y0310000D01*
X0114353Y0313000D01*
X0114353Y0329500D01*
X0114353Y0331500D01*
X0110353Y0335500D01*
X0065353Y0335500D01*
X0061353Y0339500D01*
X0114353Y0329500D02*
X0128853Y0329500D01*
X0082353Y0232000D02*
X0082353Y0081000D01*
X0102353Y0061000D01*
X0102353Y0060500D01*
X0101353Y0043500D02*
X0099853Y0042000D01*
X0091353Y0042000D01*
X0075853Y0042000D01*
X0071853Y0038000D01*
X0083853Y0057500D02*
X0083853Y0069500D01*
X0078853Y0062500D02*
X0060853Y0080500D01*
X0060853Y0111000D01*
X0039353Y0132500D01*
X0034853Y0132500D01*
X0106103Y0158000D02*
X0108853Y0158000D01*
X0113353Y0153500D01*
X0114853Y0162000D02*
X0113853Y0163000D01*
X0107853Y0163000D01*
X0130853Y0191000D02*
X0137853Y0191000D01*
X0142853Y0186000D01*
X0144353Y0184500D01*
X0144353Y0162500D01*
X0146853Y0160000D01*
X0146853Y0156000D01*
X0142853Y0157000D02*
X0138853Y0157000D01*
X0135853Y0160000D01*
X0182353Y0162500D02*
X0189353Y0162500D01*
X0229353Y0147500D02*
X0234853Y0147500D01*
X0239353Y0152000D01*
X0239353Y0162500D01*
X0234853Y0162500D01*
X0264603Y0190750D02*
X0273146Y0190750D01*
X0279603Y0184293D01*
X0283603Y0184250D01*
X0285603Y0184250D01*
X0290353Y0187750D02*
X0290353Y0160750D01*
X0285603Y0160750D01*
X0282103Y0157250D01*
X0279603Y0159750D01*
X0279603Y0162207D01*
X0290353Y0187750D02*
X0288853Y0189250D01*
X0281603Y0189250D01*
X0279603Y0191250D01*
X0279603Y0195750D01*
X0288603Y0204750D01*
X0320603Y0204750D01*
X0324603Y0200750D01*
X0279603Y0195750D02*
X0274603Y0200750D01*
X0264603Y0200750D01*
X0193353Y0214000D02*
X0164353Y0214000D01*
X0275853Y0101043D02*
X0281059Y0101043D01*
X0282603Y0099500D01*
X0286353Y0095750D01*
X0286353Y0093000D01*
X0281396Y0093957D02*
X0275853Y0093957D01*
X0282603Y0099500D02*
X0286853Y0103750D01*
X0290559Y0109250D02*
X0293853Y0106000D01*
X0293853Y0111750D02*
X0289309Y0116293D01*
X0290559Y0083293D02*
X0286103Y0083293D01*
X0290559Y0083293D02*
X0291853Y0082000D01*
X0297603Y0082000D01*
X0293896Y0076207D02*
X0294603Y0075500D01*
X0293896Y0076207D02*
X0286103Y0076207D01*
X0278103Y0071750D02*
X0274603Y0068250D01*
X0274603Y0036000D01*
X0278353Y0036000D01*
X0274603Y0036000D02*
X0274603Y0029450D01*
X0284853Y0027550D02*
X0284853Y0044500D01*
X0284853Y0051951D01*
X0283522Y0053281D02*
X0283522Y0063500D01*
X0294603Y0027550D02*
X0297353Y0024000D01*
X0304353Y0024000D01*
X0305353Y0024000D01*
X0308853Y0027500D01*
X0304103Y0023750D02*
X0304103Y0019500D01*
X0303353Y0018500D02*
X0298146Y0018500D01*
X0197353Y0026000D02*
X0196853Y0026500D01*
X0175353Y0026500D01*
X0170853Y0031000D01*
X0170853Y0076500D01*
X0176353Y0081000D02*
X0176353Y0034500D01*
X0179853Y0031000D01*
X0188853Y0031000D01*
X0176353Y0081000D02*
X0172853Y0084500D01*
X0161353Y0084500D01*
X0019353Y0237500D02*
X0013853Y0237500D01*
X0010353Y0241000D01*
X0010353Y0253000D01*
X0014353Y0257000D01*
D26*
X0093853Y0194000D02*
X0103353Y0184500D01*
X0111353Y0184500D01*
X0125353Y0170500D01*
X0125353Y0162500D01*
X0122853Y0159000D02*
X0122853Y0097500D01*
X0121353Y0096000D01*
X0121353Y0082000D01*
X0131353Y0072000D01*
X0131353Y0067500D01*
X0127853Y0064500D02*
X0131353Y0061000D01*
X0127853Y0064500D02*
X0127853Y0072500D01*
X0118353Y0082000D01*
X0118353Y0159000D01*
X0115353Y0143500D02*
X0101353Y0157500D01*
X0101353Y0178000D01*
X0098853Y0180500D01*
X0100353Y0184500D02*
X0096853Y0184500D01*
X0094853Y0182500D01*
X0094853Y0177500D01*
X0098853Y0173500D01*
X0104353Y0180500D02*
X0100353Y0184500D01*
X0132353Y0163500D02*
X0132353Y0156500D01*
X0138853Y0150000D01*
X0138853Y0147000D01*
X0157353Y0128500D01*
X0157353Y0110000D01*
X0154853Y0135500D02*
X0153853Y0135500D01*
X0150853Y0138500D01*
X0150853Y0143000D01*
X0152353Y0144500D01*
X0146353Y0146000D02*
X0146353Y0150000D01*
X0149853Y0153500D01*
X0149853Y0222000D01*
X0137853Y0165000D02*
X0133853Y0165000D01*
X0132353Y0163500D01*
X0137853Y0165000D02*
X0139853Y0163000D01*
X0115353Y0143500D02*
X0115353Y0119000D01*
X0106853Y0112000D02*
X0106853Y0090500D01*
X0125353Y0072000D01*
X0125353Y0062000D01*
X0122853Y0054000D02*
X0122853Y0071500D01*
X0101853Y0092500D01*
X0101853Y0107000D01*
X0098353Y0118000D02*
X0100853Y0120500D01*
X0104853Y0120500D01*
X0104853Y0124500D02*
X0098853Y0124500D01*
X0094853Y0120500D01*
X0094853Y0089500D01*
X0113353Y0071000D01*
X0118353Y0071000D02*
X0098353Y0091000D01*
X0098353Y0118000D01*
X0125853Y0112500D02*
X0126353Y0113000D01*
X0125853Y0087000D02*
X0126853Y0087000D01*
X0134353Y0025000D02*
X0134353Y0012500D01*
X0139353Y0007500D01*
X0144353Y0012500D02*
X0149353Y0007500D01*
X0144353Y0012500D02*
X0144353Y0025500D01*
X0174353Y0022000D02*
X0174353Y0012500D01*
X0179353Y0007500D01*
X0283522Y0053281D02*
X0284853Y0051951D01*
X0292183Y0059760D02*
X0296943Y0055000D01*
X0301559Y0055000D01*
X0305103Y0051500D02*
X0305103Y0059510D01*
X0312863Y0059510D01*
X0314853Y0061500D01*
X0314853Y0077750D01*
X0316603Y0079500D01*
X0319353Y0081750D02*
X0317603Y0083500D01*
X0316603Y0083500D01*
X0319353Y0081750D02*
X0319353Y0077000D01*
X0317103Y0074750D01*
X0317103Y0060260D01*
X0312603Y0055760D01*
X0312603Y0055000D01*
X0308646Y0055000D01*
X0305103Y0051500D02*
X0305113Y0044000D01*
X0312593Y0044000D02*
X0312603Y0054500D01*
X0312603Y0055000D01*
X0305309Y0063707D02*
X0305603Y0064000D01*
X0299853Y0070793D02*
X0305266Y0076207D01*
X0307853Y0076207D01*
X0307853Y0083293D02*
X0307853Y0086000D01*
X0315853Y0094000D01*
X0315853Y0097750D02*
X0316603Y0098500D01*
X0316603Y0176750D01*
X0302353Y0191250D01*
X0299603Y0194000D01*
X0299603Y0195750D01*
X0296103Y0202250D02*
X0314353Y0202250D01*
X0316853Y0199750D01*
X0316853Y0181000D01*
X0318853Y0179000D01*
X0318853Y0089750D01*
X0316603Y0087500D01*
X0299853Y0070793D02*
X0295737Y0070793D01*
X0292183Y0067240D01*
X0292093Y0067240D01*
X0288353Y0063500D01*
X0283522Y0063500D02*
X0283522Y0063919D01*
X0294603Y0075000D02*
X0294603Y0075500D01*
X0299103Y0106500D02*
X0299103Y0118000D01*
X0296603Y0120500D01*
X0289309Y0116293D02*
X0288853Y0116293D01*
X0229353Y0157500D02*
X0224353Y0152500D01*
X0213853Y0152500D01*
X0211353Y0155000D01*
X0210853Y0168000D02*
X0210853Y0169000D01*
X0289603Y0195750D02*
X0296103Y0202250D01*
X0215728Y0311625D02*
X0208853Y0311500D01*
X0208853Y0351500D02*
X0209353Y0351500D01*
X0019353Y0137500D02*
X0024353Y0132500D01*
X0034853Y0132500D01*
D27*
X0059853Y0172500D02*
X0077353Y0155000D01*
X0077353Y0081000D01*
X0103353Y0055000D01*
X0102853Y0066500D02*
X0085853Y0083500D01*
X0085853Y0157500D01*
X0092853Y0165500D01*
X0096353Y0162000D02*
X0094353Y0160000D01*
X0094353Y0146500D01*
X0104353Y0146500D01*
X0104353Y0142000D02*
X0097853Y0142000D01*
X0091853Y0136000D01*
X0091853Y0087000D01*
X0107853Y0071000D01*
X0102853Y0071000D02*
X0088853Y0085000D01*
X0088853Y0141000D01*
X0094353Y0146500D01*
X0098853Y0156500D02*
X0098853Y0173500D01*
X0096353Y0170000D02*
X0088853Y0177500D01*
X0088853Y0200000D01*
X0114853Y0226000D01*
X0120853Y0226000D01*
X0123853Y0229000D01*
X0123853Y0243000D01*
X0152353Y0235000D02*
X0152353Y0144500D01*
X0154884Y0139469D02*
X0154884Y0231469D01*
X0154853Y0257000D01*
X0149353Y0282500D02*
X0154853Y0288000D01*
X0223353Y0288000D01*
X0230353Y0295000D01*
X0230353Y0341500D01*
X0219853Y0293500D02*
X0101353Y0293500D01*
X0111353Y0291000D02*
X0221853Y0291000D01*
X0224353Y0222500D02*
X0213603Y0222500D01*
X0224353Y0222500D02*
X0229353Y0217500D01*
X0210853Y0168000D02*
X0216353Y0162500D01*
X0234853Y0162500D01*
X0293146Y0148500D02*
X0304353Y0148500D01*
X0312853Y0148500D02*
X0314353Y0147000D01*
X0314353Y0139293D01*
X0311103Y0136043D01*
X0150853Y0125500D02*
X0125853Y0150500D01*
X0125853Y0162000D01*
X0125353Y0162500D01*
X0129353Y0160000D02*
X0129353Y0172500D01*
X0114853Y0187000D01*
X0104353Y0187000D01*
X0099853Y0191500D01*
X0099853Y0194500D01*
X0095853Y0198500D01*
X0093853Y0198500D01*
X0096353Y0170000D02*
X0096353Y0162000D01*
X0098853Y0156500D02*
X0111853Y0143500D01*
X0111853Y0114500D01*
X0125853Y0112500D02*
X0125853Y0091500D01*
X0126853Y0087000D02*
X0131353Y0091500D01*
X0131353Y0137500D01*
X0131353Y0150000D02*
X0129353Y0152000D01*
X0129353Y0160000D01*
X0143853Y0098500D02*
X0127853Y0082500D01*
X0125853Y0082500D01*
D28*
X0208853Y0217500D03*
X0208853Y0227250D03*
X0274603Y0210750D03*
X0313603Y0210750D03*
M02*
