G75*
%MOIN*%
%OFA0B0*%
%FSLAX25Y25*%
%IPPOS*%
%LPD*%
%AMOC8*
5,1,8,0,0,1.08239X$1,22.5*
%
%ADD10C,0.00000*%
%ADD11R,0.71500X0.04000*%
%ADD12R,0.75500X0.04000*%
%ADD13R,0.04000X0.60000*%
D10*
X0001353Y0001000D02*
X0001353Y0371000D01*
X0248353Y0371000D01*
X0248353Y0222000D01*
X0338353Y0222000D01*
X0338353Y0001000D01*
X0001353Y0001000D01*
X0092384Y0277500D02*
X0092386Y0277588D01*
X0092392Y0277676D01*
X0092402Y0277764D01*
X0092416Y0277852D01*
X0092433Y0277938D01*
X0092455Y0278024D01*
X0092480Y0278108D01*
X0092510Y0278192D01*
X0092542Y0278274D01*
X0092579Y0278354D01*
X0092619Y0278433D01*
X0092663Y0278510D01*
X0092710Y0278585D01*
X0092760Y0278657D01*
X0092814Y0278728D01*
X0092870Y0278795D01*
X0092930Y0278861D01*
X0092992Y0278923D01*
X0093058Y0278983D01*
X0093125Y0279039D01*
X0093196Y0279093D01*
X0093268Y0279143D01*
X0093343Y0279190D01*
X0093420Y0279234D01*
X0093499Y0279274D01*
X0093579Y0279311D01*
X0093661Y0279343D01*
X0093745Y0279373D01*
X0093829Y0279398D01*
X0093915Y0279420D01*
X0094001Y0279437D01*
X0094089Y0279451D01*
X0094177Y0279461D01*
X0094265Y0279467D01*
X0094353Y0279469D01*
X0094441Y0279467D01*
X0094529Y0279461D01*
X0094617Y0279451D01*
X0094705Y0279437D01*
X0094791Y0279420D01*
X0094877Y0279398D01*
X0094961Y0279373D01*
X0095045Y0279343D01*
X0095127Y0279311D01*
X0095207Y0279274D01*
X0095286Y0279234D01*
X0095363Y0279190D01*
X0095438Y0279143D01*
X0095510Y0279093D01*
X0095581Y0279039D01*
X0095648Y0278983D01*
X0095714Y0278923D01*
X0095776Y0278861D01*
X0095836Y0278795D01*
X0095892Y0278728D01*
X0095946Y0278657D01*
X0095996Y0278585D01*
X0096043Y0278510D01*
X0096087Y0278433D01*
X0096127Y0278354D01*
X0096164Y0278274D01*
X0096196Y0278192D01*
X0096226Y0278108D01*
X0096251Y0278024D01*
X0096273Y0277938D01*
X0096290Y0277852D01*
X0096304Y0277764D01*
X0096314Y0277676D01*
X0096320Y0277588D01*
X0096322Y0277500D01*
X0096320Y0277412D01*
X0096314Y0277324D01*
X0096304Y0277236D01*
X0096290Y0277148D01*
X0096273Y0277062D01*
X0096251Y0276976D01*
X0096226Y0276892D01*
X0096196Y0276808D01*
X0096164Y0276726D01*
X0096127Y0276646D01*
X0096087Y0276567D01*
X0096043Y0276490D01*
X0095996Y0276415D01*
X0095946Y0276343D01*
X0095892Y0276272D01*
X0095836Y0276205D01*
X0095776Y0276139D01*
X0095714Y0276077D01*
X0095648Y0276017D01*
X0095581Y0275961D01*
X0095510Y0275907D01*
X0095438Y0275857D01*
X0095363Y0275810D01*
X0095286Y0275766D01*
X0095207Y0275726D01*
X0095127Y0275689D01*
X0095045Y0275657D01*
X0094961Y0275627D01*
X0094877Y0275602D01*
X0094791Y0275580D01*
X0094705Y0275563D01*
X0094617Y0275549D01*
X0094529Y0275539D01*
X0094441Y0275533D01*
X0094353Y0275531D01*
X0094265Y0275533D01*
X0094177Y0275539D01*
X0094089Y0275549D01*
X0094001Y0275563D01*
X0093915Y0275580D01*
X0093829Y0275602D01*
X0093745Y0275627D01*
X0093661Y0275657D01*
X0093579Y0275689D01*
X0093499Y0275726D01*
X0093420Y0275766D01*
X0093343Y0275810D01*
X0093268Y0275857D01*
X0093196Y0275907D01*
X0093125Y0275961D01*
X0093058Y0276017D01*
X0092992Y0276077D01*
X0092930Y0276139D01*
X0092870Y0276205D01*
X0092814Y0276272D01*
X0092760Y0276343D01*
X0092710Y0276415D01*
X0092663Y0276490D01*
X0092619Y0276567D01*
X0092579Y0276646D01*
X0092542Y0276726D01*
X0092510Y0276808D01*
X0092480Y0276892D01*
X0092455Y0276976D01*
X0092433Y0277062D01*
X0092416Y0277148D01*
X0092402Y0277236D01*
X0092392Y0277324D01*
X0092386Y0277412D01*
X0092384Y0277500D01*
X0102384Y0277500D02*
X0102386Y0277588D01*
X0102392Y0277676D01*
X0102402Y0277764D01*
X0102416Y0277852D01*
X0102433Y0277938D01*
X0102455Y0278024D01*
X0102480Y0278108D01*
X0102510Y0278192D01*
X0102542Y0278274D01*
X0102579Y0278354D01*
X0102619Y0278433D01*
X0102663Y0278510D01*
X0102710Y0278585D01*
X0102760Y0278657D01*
X0102814Y0278728D01*
X0102870Y0278795D01*
X0102930Y0278861D01*
X0102992Y0278923D01*
X0103058Y0278983D01*
X0103125Y0279039D01*
X0103196Y0279093D01*
X0103268Y0279143D01*
X0103343Y0279190D01*
X0103420Y0279234D01*
X0103499Y0279274D01*
X0103579Y0279311D01*
X0103661Y0279343D01*
X0103745Y0279373D01*
X0103829Y0279398D01*
X0103915Y0279420D01*
X0104001Y0279437D01*
X0104089Y0279451D01*
X0104177Y0279461D01*
X0104265Y0279467D01*
X0104353Y0279469D01*
X0104441Y0279467D01*
X0104529Y0279461D01*
X0104617Y0279451D01*
X0104705Y0279437D01*
X0104791Y0279420D01*
X0104877Y0279398D01*
X0104961Y0279373D01*
X0105045Y0279343D01*
X0105127Y0279311D01*
X0105207Y0279274D01*
X0105286Y0279234D01*
X0105363Y0279190D01*
X0105438Y0279143D01*
X0105510Y0279093D01*
X0105581Y0279039D01*
X0105648Y0278983D01*
X0105714Y0278923D01*
X0105776Y0278861D01*
X0105836Y0278795D01*
X0105892Y0278728D01*
X0105946Y0278657D01*
X0105996Y0278585D01*
X0106043Y0278510D01*
X0106087Y0278433D01*
X0106127Y0278354D01*
X0106164Y0278274D01*
X0106196Y0278192D01*
X0106226Y0278108D01*
X0106251Y0278024D01*
X0106273Y0277938D01*
X0106290Y0277852D01*
X0106304Y0277764D01*
X0106314Y0277676D01*
X0106320Y0277588D01*
X0106322Y0277500D01*
X0106320Y0277412D01*
X0106314Y0277324D01*
X0106304Y0277236D01*
X0106290Y0277148D01*
X0106273Y0277062D01*
X0106251Y0276976D01*
X0106226Y0276892D01*
X0106196Y0276808D01*
X0106164Y0276726D01*
X0106127Y0276646D01*
X0106087Y0276567D01*
X0106043Y0276490D01*
X0105996Y0276415D01*
X0105946Y0276343D01*
X0105892Y0276272D01*
X0105836Y0276205D01*
X0105776Y0276139D01*
X0105714Y0276077D01*
X0105648Y0276017D01*
X0105581Y0275961D01*
X0105510Y0275907D01*
X0105438Y0275857D01*
X0105363Y0275810D01*
X0105286Y0275766D01*
X0105207Y0275726D01*
X0105127Y0275689D01*
X0105045Y0275657D01*
X0104961Y0275627D01*
X0104877Y0275602D01*
X0104791Y0275580D01*
X0104705Y0275563D01*
X0104617Y0275549D01*
X0104529Y0275539D01*
X0104441Y0275533D01*
X0104353Y0275531D01*
X0104265Y0275533D01*
X0104177Y0275539D01*
X0104089Y0275549D01*
X0104001Y0275563D01*
X0103915Y0275580D01*
X0103829Y0275602D01*
X0103745Y0275627D01*
X0103661Y0275657D01*
X0103579Y0275689D01*
X0103499Y0275726D01*
X0103420Y0275766D01*
X0103343Y0275810D01*
X0103268Y0275857D01*
X0103196Y0275907D01*
X0103125Y0275961D01*
X0103058Y0276017D01*
X0102992Y0276077D01*
X0102930Y0276139D01*
X0102870Y0276205D01*
X0102814Y0276272D01*
X0102760Y0276343D01*
X0102710Y0276415D01*
X0102663Y0276490D01*
X0102619Y0276567D01*
X0102579Y0276646D01*
X0102542Y0276726D01*
X0102510Y0276808D01*
X0102480Y0276892D01*
X0102455Y0276976D01*
X0102433Y0277062D01*
X0102416Y0277148D01*
X0102402Y0277236D01*
X0102392Y0277324D01*
X0102386Y0277412D01*
X0102384Y0277500D01*
X0112384Y0277500D02*
X0112386Y0277588D01*
X0112392Y0277676D01*
X0112402Y0277764D01*
X0112416Y0277852D01*
X0112433Y0277938D01*
X0112455Y0278024D01*
X0112480Y0278108D01*
X0112510Y0278192D01*
X0112542Y0278274D01*
X0112579Y0278354D01*
X0112619Y0278433D01*
X0112663Y0278510D01*
X0112710Y0278585D01*
X0112760Y0278657D01*
X0112814Y0278728D01*
X0112870Y0278795D01*
X0112930Y0278861D01*
X0112992Y0278923D01*
X0113058Y0278983D01*
X0113125Y0279039D01*
X0113196Y0279093D01*
X0113268Y0279143D01*
X0113343Y0279190D01*
X0113420Y0279234D01*
X0113499Y0279274D01*
X0113579Y0279311D01*
X0113661Y0279343D01*
X0113745Y0279373D01*
X0113829Y0279398D01*
X0113915Y0279420D01*
X0114001Y0279437D01*
X0114089Y0279451D01*
X0114177Y0279461D01*
X0114265Y0279467D01*
X0114353Y0279469D01*
X0114441Y0279467D01*
X0114529Y0279461D01*
X0114617Y0279451D01*
X0114705Y0279437D01*
X0114791Y0279420D01*
X0114877Y0279398D01*
X0114961Y0279373D01*
X0115045Y0279343D01*
X0115127Y0279311D01*
X0115207Y0279274D01*
X0115286Y0279234D01*
X0115363Y0279190D01*
X0115438Y0279143D01*
X0115510Y0279093D01*
X0115581Y0279039D01*
X0115648Y0278983D01*
X0115714Y0278923D01*
X0115776Y0278861D01*
X0115836Y0278795D01*
X0115892Y0278728D01*
X0115946Y0278657D01*
X0115996Y0278585D01*
X0116043Y0278510D01*
X0116087Y0278433D01*
X0116127Y0278354D01*
X0116164Y0278274D01*
X0116196Y0278192D01*
X0116226Y0278108D01*
X0116251Y0278024D01*
X0116273Y0277938D01*
X0116290Y0277852D01*
X0116304Y0277764D01*
X0116314Y0277676D01*
X0116320Y0277588D01*
X0116322Y0277500D01*
X0116320Y0277412D01*
X0116314Y0277324D01*
X0116304Y0277236D01*
X0116290Y0277148D01*
X0116273Y0277062D01*
X0116251Y0276976D01*
X0116226Y0276892D01*
X0116196Y0276808D01*
X0116164Y0276726D01*
X0116127Y0276646D01*
X0116087Y0276567D01*
X0116043Y0276490D01*
X0115996Y0276415D01*
X0115946Y0276343D01*
X0115892Y0276272D01*
X0115836Y0276205D01*
X0115776Y0276139D01*
X0115714Y0276077D01*
X0115648Y0276017D01*
X0115581Y0275961D01*
X0115510Y0275907D01*
X0115438Y0275857D01*
X0115363Y0275810D01*
X0115286Y0275766D01*
X0115207Y0275726D01*
X0115127Y0275689D01*
X0115045Y0275657D01*
X0114961Y0275627D01*
X0114877Y0275602D01*
X0114791Y0275580D01*
X0114705Y0275563D01*
X0114617Y0275549D01*
X0114529Y0275539D01*
X0114441Y0275533D01*
X0114353Y0275531D01*
X0114265Y0275533D01*
X0114177Y0275539D01*
X0114089Y0275549D01*
X0114001Y0275563D01*
X0113915Y0275580D01*
X0113829Y0275602D01*
X0113745Y0275627D01*
X0113661Y0275657D01*
X0113579Y0275689D01*
X0113499Y0275726D01*
X0113420Y0275766D01*
X0113343Y0275810D01*
X0113268Y0275857D01*
X0113196Y0275907D01*
X0113125Y0275961D01*
X0113058Y0276017D01*
X0112992Y0276077D01*
X0112930Y0276139D01*
X0112870Y0276205D01*
X0112814Y0276272D01*
X0112760Y0276343D01*
X0112710Y0276415D01*
X0112663Y0276490D01*
X0112619Y0276567D01*
X0112579Y0276646D01*
X0112542Y0276726D01*
X0112510Y0276808D01*
X0112480Y0276892D01*
X0112455Y0276976D01*
X0112433Y0277062D01*
X0112416Y0277148D01*
X0112402Y0277236D01*
X0112392Y0277324D01*
X0112386Y0277412D01*
X0112384Y0277500D01*
X0122384Y0277500D02*
X0122386Y0277588D01*
X0122392Y0277676D01*
X0122402Y0277764D01*
X0122416Y0277852D01*
X0122433Y0277938D01*
X0122455Y0278024D01*
X0122480Y0278108D01*
X0122510Y0278192D01*
X0122542Y0278274D01*
X0122579Y0278354D01*
X0122619Y0278433D01*
X0122663Y0278510D01*
X0122710Y0278585D01*
X0122760Y0278657D01*
X0122814Y0278728D01*
X0122870Y0278795D01*
X0122930Y0278861D01*
X0122992Y0278923D01*
X0123058Y0278983D01*
X0123125Y0279039D01*
X0123196Y0279093D01*
X0123268Y0279143D01*
X0123343Y0279190D01*
X0123420Y0279234D01*
X0123499Y0279274D01*
X0123579Y0279311D01*
X0123661Y0279343D01*
X0123745Y0279373D01*
X0123829Y0279398D01*
X0123915Y0279420D01*
X0124001Y0279437D01*
X0124089Y0279451D01*
X0124177Y0279461D01*
X0124265Y0279467D01*
X0124353Y0279469D01*
X0124441Y0279467D01*
X0124529Y0279461D01*
X0124617Y0279451D01*
X0124705Y0279437D01*
X0124791Y0279420D01*
X0124877Y0279398D01*
X0124961Y0279373D01*
X0125045Y0279343D01*
X0125127Y0279311D01*
X0125207Y0279274D01*
X0125286Y0279234D01*
X0125363Y0279190D01*
X0125438Y0279143D01*
X0125510Y0279093D01*
X0125581Y0279039D01*
X0125648Y0278983D01*
X0125714Y0278923D01*
X0125776Y0278861D01*
X0125836Y0278795D01*
X0125892Y0278728D01*
X0125946Y0278657D01*
X0125996Y0278585D01*
X0126043Y0278510D01*
X0126087Y0278433D01*
X0126127Y0278354D01*
X0126164Y0278274D01*
X0126196Y0278192D01*
X0126226Y0278108D01*
X0126251Y0278024D01*
X0126273Y0277938D01*
X0126290Y0277852D01*
X0126304Y0277764D01*
X0126314Y0277676D01*
X0126320Y0277588D01*
X0126322Y0277500D01*
X0126320Y0277412D01*
X0126314Y0277324D01*
X0126304Y0277236D01*
X0126290Y0277148D01*
X0126273Y0277062D01*
X0126251Y0276976D01*
X0126226Y0276892D01*
X0126196Y0276808D01*
X0126164Y0276726D01*
X0126127Y0276646D01*
X0126087Y0276567D01*
X0126043Y0276490D01*
X0125996Y0276415D01*
X0125946Y0276343D01*
X0125892Y0276272D01*
X0125836Y0276205D01*
X0125776Y0276139D01*
X0125714Y0276077D01*
X0125648Y0276017D01*
X0125581Y0275961D01*
X0125510Y0275907D01*
X0125438Y0275857D01*
X0125363Y0275810D01*
X0125286Y0275766D01*
X0125207Y0275726D01*
X0125127Y0275689D01*
X0125045Y0275657D01*
X0124961Y0275627D01*
X0124877Y0275602D01*
X0124791Y0275580D01*
X0124705Y0275563D01*
X0124617Y0275549D01*
X0124529Y0275539D01*
X0124441Y0275533D01*
X0124353Y0275531D01*
X0124265Y0275533D01*
X0124177Y0275539D01*
X0124089Y0275549D01*
X0124001Y0275563D01*
X0123915Y0275580D01*
X0123829Y0275602D01*
X0123745Y0275627D01*
X0123661Y0275657D01*
X0123579Y0275689D01*
X0123499Y0275726D01*
X0123420Y0275766D01*
X0123343Y0275810D01*
X0123268Y0275857D01*
X0123196Y0275907D01*
X0123125Y0275961D01*
X0123058Y0276017D01*
X0122992Y0276077D01*
X0122930Y0276139D01*
X0122870Y0276205D01*
X0122814Y0276272D01*
X0122760Y0276343D01*
X0122710Y0276415D01*
X0122663Y0276490D01*
X0122619Y0276567D01*
X0122579Y0276646D01*
X0122542Y0276726D01*
X0122510Y0276808D01*
X0122480Y0276892D01*
X0122455Y0276976D01*
X0122433Y0277062D01*
X0122416Y0277148D01*
X0122402Y0277236D01*
X0122392Y0277324D01*
X0122386Y0277412D01*
X0122384Y0277500D01*
X0132384Y0277500D02*
X0132386Y0277588D01*
X0132392Y0277676D01*
X0132402Y0277764D01*
X0132416Y0277852D01*
X0132433Y0277938D01*
X0132455Y0278024D01*
X0132480Y0278108D01*
X0132510Y0278192D01*
X0132542Y0278274D01*
X0132579Y0278354D01*
X0132619Y0278433D01*
X0132663Y0278510D01*
X0132710Y0278585D01*
X0132760Y0278657D01*
X0132814Y0278728D01*
X0132870Y0278795D01*
X0132930Y0278861D01*
X0132992Y0278923D01*
X0133058Y0278983D01*
X0133125Y0279039D01*
X0133196Y0279093D01*
X0133268Y0279143D01*
X0133343Y0279190D01*
X0133420Y0279234D01*
X0133499Y0279274D01*
X0133579Y0279311D01*
X0133661Y0279343D01*
X0133745Y0279373D01*
X0133829Y0279398D01*
X0133915Y0279420D01*
X0134001Y0279437D01*
X0134089Y0279451D01*
X0134177Y0279461D01*
X0134265Y0279467D01*
X0134353Y0279469D01*
X0134441Y0279467D01*
X0134529Y0279461D01*
X0134617Y0279451D01*
X0134705Y0279437D01*
X0134791Y0279420D01*
X0134877Y0279398D01*
X0134961Y0279373D01*
X0135045Y0279343D01*
X0135127Y0279311D01*
X0135207Y0279274D01*
X0135286Y0279234D01*
X0135363Y0279190D01*
X0135438Y0279143D01*
X0135510Y0279093D01*
X0135581Y0279039D01*
X0135648Y0278983D01*
X0135714Y0278923D01*
X0135776Y0278861D01*
X0135836Y0278795D01*
X0135892Y0278728D01*
X0135946Y0278657D01*
X0135996Y0278585D01*
X0136043Y0278510D01*
X0136087Y0278433D01*
X0136127Y0278354D01*
X0136164Y0278274D01*
X0136196Y0278192D01*
X0136226Y0278108D01*
X0136251Y0278024D01*
X0136273Y0277938D01*
X0136290Y0277852D01*
X0136304Y0277764D01*
X0136314Y0277676D01*
X0136320Y0277588D01*
X0136322Y0277500D01*
X0136320Y0277412D01*
X0136314Y0277324D01*
X0136304Y0277236D01*
X0136290Y0277148D01*
X0136273Y0277062D01*
X0136251Y0276976D01*
X0136226Y0276892D01*
X0136196Y0276808D01*
X0136164Y0276726D01*
X0136127Y0276646D01*
X0136087Y0276567D01*
X0136043Y0276490D01*
X0135996Y0276415D01*
X0135946Y0276343D01*
X0135892Y0276272D01*
X0135836Y0276205D01*
X0135776Y0276139D01*
X0135714Y0276077D01*
X0135648Y0276017D01*
X0135581Y0275961D01*
X0135510Y0275907D01*
X0135438Y0275857D01*
X0135363Y0275810D01*
X0135286Y0275766D01*
X0135207Y0275726D01*
X0135127Y0275689D01*
X0135045Y0275657D01*
X0134961Y0275627D01*
X0134877Y0275602D01*
X0134791Y0275580D01*
X0134705Y0275563D01*
X0134617Y0275549D01*
X0134529Y0275539D01*
X0134441Y0275533D01*
X0134353Y0275531D01*
X0134265Y0275533D01*
X0134177Y0275539D01*
X0134089Y0275549D01*
X0134001Y0275563D01*
X0133915Y0275580D01*
X0133829Y0275602D01*
X0133745Y0275627D01*
X0133661Y0275657D01*
X0133579Y0275689D01*
X0133499Y0275726D01*
X0133420Y0275766D01*
X0133343Y0275810D01*
X0133268Y0275857D01*
X0133196Y0275907D01*
X0133125Y0275961D01*
X0133058Y0276017D01*
X0132992Y0276077D01*
X0132930Y0276139D01*
X0132870Y0276205D01*
X0132814Y0276272D01*
X0132760Y0276343D01*
X0132710Y0276415D01*
X0132663Y0276490D01*
X0132619Y0276567D01*
X0132579Y0276646D01*
X0132542Y0276726D01*
X0132510Y0276808D01*
X0132480Y0276892D01*
X0132455Y0276976D01*
X0132433Y0277062D01*
X0132416Y0277148D01*
X0132402Y0277236D01*
X0132392Y0277324D01*
X0132386Y0277412D01*
X0132384Y0277500D01*
X0142384Y0277500D02*
X0142386Y0277588D01*
X0142392Y0277676D01*
X0142402Y0277764D01*
X0142416Y0277852D01*
X0142433Y0277938D01*
X0142455Y0278024D01*
X0142480Y0278108D01*
X0142510Y0278192D01*
X0142542Y0278274D01*
X0142579Y0278354D01*
X0142619Y0278433D01*
X0142663Y0278510D01*
X0142710Y0278585D01*
X0142760Y0278657D01*
X0142814Y0278728D01*
X0142870Y0278795D01*
X0142930Y0278861D01*
X0142992Y0278923D01*
X0143058Y0278983D01*
X0143125Y0279039D01*
X0143196Y0279093D01*
X0143268Y0279143D01*
X0143343Y0279190D01*
X0143420Y0279234D01*
X0143499Y0279274D01*
X0143579Y0279311D01*
X0143661Y0279343D01*
X0143745Y0279373D01*
X0143829Y0279398D01*
X0143915Y0279420D01*
X0144001Y0279437D01*
X0144089Y0279451D01*
X0144177Y0279461D01*
X0144265Y0279467D01*
X0144353Y0279469D01*
X0144441Y0279467D01*
X0144529Y0279461D01*
X0144617Y0279451D01*
X0144705Y0279437D01*
X0144791Y0279420D01*
X0144877Y0279398D01*
X0144961Y0279373D01*
X0145045Y0279343D01*
X0145127Y0279311D01*
X0145207Y0279274D01*
X0145286Y0279234D01*
X0145363Y0279190D01*
X0145438Y0279143D01*
X0145510Y0279093D01*
X0145581Y0279039D01*
X0145648Y0278983D01*
X0145714Y0278923D01*
X0145776Y0278861D01*
X0145836Y0278795D01*
X0145892Y0278728D01*
X0145946Y0278657D01*
X0145996Y0278585D01*
X0146043Y0278510D01*
X0146087Y0278433D01*
X0146127Y0278354D01*
X0146164Y0278274D01*
X0146196Y0278192D01*
X0146226Y0278108D01*
X0146251Y0278024D01*
X0146273Y0277938D01*
X0146290Y0277852D01*
X0146304Y0277764D01*
X0146314Y0277676D01*
X0146320Y0277588D01*
X0146322Y0277500D01*
X0146320Y0277412D01*
X0146314Y0277324D01*
X0146304Y0277236D01*
X0146290Y0277148D01*
X0146273Y0277062D01*
X0146251Y0276976D01*
X0146226Y0276892D01*
X0146196Y0276808D01*
X0146164Y0276726D01*
X0146127Y0276646D01*
X0146087Y0276567D01*
X0146043Y0276490D01*
X0145996Y0276415D01*
X0145946Y0276343D01*
X0145892Y0276272D01*
X0145836Y0276205D01*
X0145776Y0276139D01*
X0145714Y0276077D01*
X0145648Y0276017D01*
X0145581Y0275961D01*
X0145510Y0275907D01*
X0145438Y0275857D01*
X0145363Y0275810D01*
X0145286Y0275766D01*
X0145207Y0275726D01*
X0145127Y0275689D01*
X0145045Y0275657D01*
X0144961Y0275627D01*
X0144877Y0275602D01*
X0144791Y0275580D01*
X0144705Y0275563D01*
X0144617Y0275549D01*
X0144529Y0275539D01*
X0144441Y0275533D01*
X0144353Y0275531D01*
X0144265Y0275533D01*
X0144177Y0275539D01*
X0144089Y0275549D01*
X0144001Y0275563D01*
X0143915Y0275580D01*
X0143829Y0275602D01*
X0143745Y0275627D01*
X0143661Y0275657D01*
X0143579Y0275689D01*
X0143499Y0275726D01*
X0143420Y0275766D01*
X0143343Y0275810D01*
X0143268Y0275857D01*
X0143196Y0275907D01*
X0143125Y0275961D01*
X0143058Y0276017D01*
X0142992Y0276077D01*
X0142930Y0276139D01*
X0142870Y0276205D01*
X0142814Y0276272D01*
X0142760Y0276343D01*
X0142710Y0276415D01*
X0142663Y0276490D01*
X0142619Y0276567D01*
X0142579Y0276646D01*
X0142542Y0276726D01*
X0142510Y0276808D01*
X0142480Y0276892D01*
X0142455Y0276976D01*
X0142433Y0277062D01*
X0142416Y0277148D01*
X0142402Y0277236D01*
X0142392Y0277324D01*
X0142386Y0277412D01*
X0142384Y0277500D01*
X0152384Y0277500D02*
X0152386Y0277588D01*
X0152392Y0277676D01*
X0152402Y0277764D01*
X0152416Y0277852D01*
X0152433Y0277938D01*
X0152455Y0278024D01*
X0152480Y0278108D01*
X0152510Y0278192D01*
X0152542Y0278274D01*
X0152579Y0278354D01*
X0152619Y0278433D01*
X0152663Y0278510D01*
X0152710Y0278585D01*
X0152760Y0278657D01*
X0152814Y0278728D01*
X0152870Y0278795D01*
X0152930Y0278861D01*
X0152992Y0278923D01*
X0153058Y0278983D01*
X0153125Y0279039D01*
X0153196Y0279093D01*
X0153268Y0279143D01*
X0153343Y0279190D01*
X0153420Y0279234D01*
X0153499Y0279274D01*
X0153579Y0279311D01*
X0153661Y0279343D01*
X0153745Y0279373D01*
X0153829Y0279398D01*
X0153915Y0279420D01*
X0154001Y0279437D01*
X0154089Y0279451D01*
X0154177Y0279461D01*
X0154265Y0279467D01*
X0154353Y0279469D01*
X0154441Y0279467D01*
X0154529Y0279461D01*
X0154617Y0279451D01*
X0154705Y0279437D01*
X0154791Y0279420D01*
X0154877Y0279398D01*
X0154961Y0279373D01*
X0155045Y0279343D01*
X0155127Y0279311D01*
X0155207Y0279274D01*
X0155286Y0279234D01*
X0155363Y0279190D01*
X0155438Y0279143D01*
X0155510Y0279093D01*
X0155581Y0279039D01*
X0155648Y0278983D01*
X0155714Y0278923D01*
X0155776Y0278861D01*
X0155836Y0278795D01*
X0155892Y0278728D01*
X0155946Y0278657D01*
X0155996Y0278585D01*
X0156043Y0278510D01*
X0156087Y0278433D01*
X0156127Y0278354D01*
X0156164Y0278274D01*
X0156196Y0278192D01*
X0156226Y0278108D01*
X0156251Y0278024D01*
X0156273Y0277938D01*
X0156290Y0277852D01*
X0156304Y0277764D01*
X0156314Y0277676D01*
X0156320Y0277588D01*
X0156322Y0277500D01*
X0156320Y0277412D01*
X0156314Y0277324D01*
X0156304Y0277236D01*
X0156290Y0277148D01*
X0156273Y0277062D01*
X0156251Y0276976D01*
X0156226Y0276892D01*
X0156196Y0276808D01*
X0156164Y0276726D01*
X0156127Y0276646D01*
X0156087Y0276567D01*
X0156043Y0276490D01*
X0155996Y0276415D01*
X0155946Y0276343D01*
X0155892Y0276272D01*
X0155836Y0276205D01*
X0155776Y0276139D01*
X0155714Y0276077D01*
X0155648Y0276017D01*
X0155581Y0275961D01*
X0155510Y0275907D01*
X0155438Y0275857D01*
X0155363Y0275810D01*
X0155286Y0275766D01*
X0155207Y0275726D01*
X0155127Y0275689D01*
X0155045Y0275657D01*
X0154961Y0275627D01*
X0154877Y0275602D01*
X0154791Y0275580D01*
X0154705Y0275563D01*
X0154617Y0275549D01*
X0154529Y0275539D01*
X0154441Y0275533D01*
X0154353Y0275531D01*
X0154265Y0275533D01*
X0154177Y0275539D01*
X0154089Y0275549D01*
X0154001Y0275563D01*
X0153915Y0275580D01*
X0153829Y0275602D01*
X0153745Y0275627D01*
X0153661Y0275657D01*
X0153579Y0275689D01*
X0153499Y0275726D01*
X0153420Y0275766D01*
X0153343Y0275810D01*
X0153268Y0275857D01*
X0153196Y0275907D01*
X0153125Y0275961D01*
X0153058Y0276017D01*
X0152992Y0276077D01*
X0152930Y0276139D01*
X0152870Y0276205D01*
X0152814Y0276272D01*
X0152760Y0276343D01*
X0152710Y0276415D01*
X0152663Y0276490D01*
X0152619Y0276567D01*
X0152579Y0276646D01*
X0152542Y0276726D01*
X0152510Y0276808D01*
X0152480Y0276892D01*
X0152455Y0276976D01*
X0152433Y0277062D01*
X0152416Y0277148D01*
X0152402Y0277236D01*
X0152392Y0277324D01*
X0152386Y0277412D01*
X0152384Y0277500D01*
D11*
X0046603Y0278000D03*
D12*
X0204603Y0278000D03*
D13*
X0250353Y0183500D03*
X0250353Y0111250D03*
X0250353Y0038500D03*
M02*
