%
M48
M72
T01C0.01200
T02C0.02000
T03C0.03150
T04C0.03200
T05C0.03937
T06C0.04000
%
T01
X64353Y51000
X71853Y38000
X91353Y42000
X101353Y43500
X102353Y60500
X102853Y66500
X102853Y71000
X107853Y71000
X113353Y71000
X118353Y71000
X125853Y82500
X125853Y87000
X125853Y91500
X143853Y98500
X157353Y110000
X154853Y135500
X154884Y139469
X146353Y146000
X146853Y156000
X142853Y157000
X144353Y162500
X139853Y163000
X135853Y160000
X129353Y160000
X125353Y162500
X122853Y159000
X118353Y159000
X114853Y162000
X107853Y163000
X106103Y158000
X113353Y153500
X104353Y146500
X104353Y142000
X104853Y124500
X104853Y120500
X106853Y112000
X111853Y114500
X115353Y119000
X101853Y107000
X126353Y113000
X131353Y137500
X131353Y150000
X104353Y180500
X98853Y180500
X104853Y191500
X104853Y195500
X104853Y199500
X112853Y199500
X112853Y195500
X112853Y191500
X130853Y191000
X142853Y186000
X164353Y214000
X193353Y214000
X195353Y237500
X209853Y237500
X186353Y251500
X208853Y296500
X197353Y301500
X197353Y306500
X197353Y311500
X197353Y321500
X197353Y331500
X197353Y341500
X197353Y351500
X180853Y351500
X167353Y361500
X164353Y343000
X162853Y323000
X180853Y311500
X180853Y301500
X165853Y300500
X134853Y310000
X123853Y319750
X118853Y324125
X128853Y329500
X127353Y335500
X127853Y345000
X136603Y347500
X137353Y337000
X114353Y313000
X110103Y318500
X103853Y310000
X105728Y302250
X88853Y317000
X88853Y321000
X77853Y300500
X59353Y318500
X53478Y317000
X39353Y335000
X47353Y337000
X61353Y339500
X45853Y300500
X14353Y257000
X76353Y207500
X93853Y198500
X93853Y194000
X76353Y167500
X92853Y165500
X59853Y172500
X104353Y223750
X108853Y237500
X118853Y237500
X118853Y231000
X123853Y243000
X128853Y252000
X86853Y243000
X82353Y232000
X110103Y335000
X219353Y341500
X230353Y341500
X226353Y351500
X218853Y316500
X219353Y308000
X285603Y184250
X272353Y173750
X282103Y157250
X289603Y138750
X285603Y134500
X282853Y124250
X293853Y111750
X293853Y106000
X299103Y106500
X296603Y120500
X303853Y122000
X286853Y103750
X282603Y99500
X281853Y94000
X286353Y93000
X291853Y82000
X297603Y82000
X294603Y75500
X287103Y71750
X288353Y63500
X284853Y44500
X278353Y36000
X295103Y13000
X303603Y27750
X308853Y27500
X312603Y24250
X308603Y49750
X305603Y64000
X316603Y79500
X316603Y83500
X316603Y87500
X315853Y94000
X315853Y97750
X309853Y95750
X307353Y91750
X272353Y138250
X307103Y168500
X312853Y148500
X211353Y155000
X210853Y169000
X189353Y162500
X182353Y162500
X182353Y167000
X188353Y155000
X202853Y142500
X202853Y132500
X161353Y84500
X170853Y76500
X183353Y37000
X188853Y31000
X197353Y26000
X131353Y61000
X131353Y67500
X83853Y69500
X78853Y62500
X83853Y57500
X60853Y111000
T02
X59853Y19750
X78853Y19750
X285103Y19500
X304103Y19500
X20103Y313000
X20103Y332000
T03
X208853Y227250
X208853Y217500
X274603Y210750
X313603Y210750
T04
X309353Y153500
X309353Y143500
X303853Y129000
X284853Y129000
X178853Y193500
X168853Y193500
X144353Y207500
X125353Y207500
X171853Y311500
X171853Y330500
T05
X154353Y277500
X144353Y277500
X134353Y277500
X124353Y277500
X114353Y277500
X104353Y277500
X94353Y277500
X9353Y308250
X9353Y336750
X55103Y9000
X83603Y9000
X280353Y8750
X308853Y8750
T06
X19353Y7500
X29353Y7500
X29353Y17500
X29353Y27500
X29353Y37500
X29353Y47500
X29353Y57500
X29353Y67500
X29353Y77500
X29353Y87500
X29353Y97500
X29353Y107500
X29353Y117500
X29353Y127500
X29353Y137500
X29353Y147500
X29353Y157500
X29353Y167500
X29353Y177500
X29353Y187500
X29353Y197500
X29353Y207500
X29353Y217500
X29353Y227500
X29353Y237500
X29353Y247500
X19353Y247500
X19353Y237500
X19353Y227500
X19353Y217500
X19353Y207500
X19353Y197500
X19353Y187500
X19353Y177500
X19353Y167500
X19353Y157500
X19353Y147500
X19353Y137500
X19353Y127500
X19353Y117500
X19353Y107500
X19353Y97500
X19353Y87500
X19353Y77500
X19353Y67500
X19353Y57500
X19353Y47500
X19353Y37500
X19353Y27500
X19353Y17500
X109353Y17500
X119353Y17500
X129353Y17500
X139353Y17500
X149353Y17500
X159353Y17500
X169353Y17500
X179353Y17500
X189353Y17500
X199353Y17500
X199353Y7500
X189353Y7500
X179353Y7500
X169353Y7500
X159353Y7500
X149353Y7500
X139353Y7500
X129353Y7500
X119353Y7500
X109353Y7500
X219353Y7500
X229353Y7500
X229353Y17500
X229353Y27500
X229353Y37500
X229353Y47500
X229353Y57500
X229353Y67500
X229353Y77500
X229353Y87500
X229353Y97500
X229353Y107500
X229353Y117500
X229353Y127500
X229353Y137500
X229353Y147500
X229353Y157500
X229353Y167500
X229353Y177500
X229353Y187500
X229353Y197500
X229353Y207500
X229353Y217500
X229353Y227500
X229353Y237500
X229353Y247500
X219353Y247500
X219353Y237500
X219353Y227500
X219353Y217500
X219353Y207500
X219353Y197500
X219353Y187500
X219353Y177500
X219353Y167500
X219353Y157500
X219353Y147500
X219353Y137500
X219353Y127500
X219353Y117500
X219353Y107500
X219353Y97500
X219353Y87500
X219353Y77500
X219353Y67500
X219353Y57500
X219353Y47500
X219353Y37500
X219353Y27500
X219353Y17500
X264603Y20750
X264603Y10750
X264603Y30750
X264603Y40750
X264603Y50750
X264603Y60750
X264603Y70750
X264603Y80750
X264603Y90750
X264603Y100750
X264603Y110750
X264603Y120750
X264603Y130750
X264603Y140750
X264603Y150750
X264603Y160750
X264603Y170750
X264603Y180750
X264603Y190750
X264603Y200750
X264603Y210750
X279603Y195750
X289603Y195750
X299603Y195750
X309603Y195750
X324603Y190750
X324603Y180750
X324603Y170750
X324603Y160750
X324603Y150750
X324603Y140750
X324603Y130750
X324603Y120750
X324603Y110750
X324603Y100750
X324603Y90750
X324603Y80750
X324603Y70750
X324603Y60750
X324603Y50750
X324603Y40750
X324603Y30750
X324603Y20750
X324603Y10750
X300353Y160750
X290353Y160750
X324603Y200750
X324603Y210750
X159353Y272500
X159353Y282500
X149353Y282500
X149353Y272500
X139353Y272500
X139353Y282500
X129353Y282500
X129353Y272500
X119353Y272500
X119353Y282500
X109353Y282500
X109353Y272500
X99353Y272500
X99353Y282500
X89353Y282500
X89353Y272500
X66353Y221500
X56353Y221500
M30
